<?xml version="1.0" encoding="UTF-8"?>
<!DOCTYPE svg PUBLIC "-//W3C//DTD SVG 1.1//EN" "http://www.w3.org/Graphics/SVG/1.1/DTD/svg11.dtd">
<svg xmlns="http://www.w3.org/2000/svg" version="1.1" width="365px" height="365px" style="shape-rendering:geometricPrecision; text-rendering:geometricPrecision; image-rendering:optimizeQuality; fill-rule:evenodd; clip-rule:evenodd" xmlns:xlink="http://www.w3.org/1999/xlink">
<g><path style="opacity:1" fill="#000000" d="M -0.5,-0.5 C 121.167,-0.5 242.833,-0.5 364.5,-0.5C 364.5,121.167 364.5,242.833 364.5,364.5C 242.833,364.5 121.167,364.5 -0.5,364.5C -0.5,242.833 -0.5,121.167 -0.5,-0.5 Z"/></g>
<g><path style="opacity:1" fill="#200b00" d="M 151.5,95.5 C 151.5,95.1667 151.5,94.8333 151.5,94.5C 152.5,94.5 153.5,94.5 154.5,94.5C 154.664,91.8127 154.497,89.146 154,86.5C 152.201,82.1166 150.201,77.7833 148,73.5C 139.714,62.2127 131.048,51.2127 122,40.5C 112.112,31.9458 102.946,22.7792 94.5,13C 87.908,11.6712 81.2414,11.1712 74.5,11.5C 81.3066,9.53495 88.3066,9.70162 95.5,12C 103.946,21.7792 113.112,30.9458 123,39.5C 132.048,50.2127 140.714,61.2127 149,72.5C 151.605,78.1594 154.105,83.8261 156.5,89.5C 155.652,91.4086 155.318,93.4086 155.5,95.5C 154.5,95.5 153.5,95.5 152.5,95.5C 151.849,97.8257 151.182,100.159 150.5,102.5C 150.437,104.481 151.104,106.148 152.5,107.5C 158.364,104.281 160.031,99.4478 157.5,93C 158.873,91.5213 160.373,91.688 162,93.5C 162.167,92.8333 162.333,92.1667 162.5,91.5C 159.607,86.2272 157.773,80.5606 157,74.5C 139.959,50.7901 120.126,29.6235 97.5,11C 93.8073,9.28577 90.1406,7.6191 86.5,6C 83.173,5.46529 80.0063,5.96529 77,7.5C 76.6012,7.27155 76.4346,6.93822 76.5,6.5C 79.8855,4.75487 83.5521,4.25487 87.5,5C 91.1406,6.6191 94.8073,8.28577 98.5,10C 121.126,28.6235 140.959,49.7901 158,73.5C 158.67,78.8814 160.337,83.8814 163,88.5C 163.495,90.4727 163.662,92.4727 163.5,94.5C 162.178,94.67 161.011,94.3366 160,93.5C 159.667,96.8333 159.333,100.167 159,103.5C 157.027,107.033 154.194,108.366 150.5,107.5C 149.028,103.29 149.362,99.29 151.5,95.5 Z"/></g>
<g><path style="opacity:1" fill="#fc5b00" d="M 74.5,11.5 C 73.1416,9.25721 73.8083,7.59054 76.5,6.5C 76.4346,6.93822 76.6012,7.27155 77,7.5C 80.0063,5.96529 83.173,5.46529 86.5,6C 90.1406,7.6191 93.8073,9.28577 97.5,11C 120.126,29.6235 139.959,50.7901 157,74.5C 157.773,80.5606 159.607,86.2272 162.5,91.5C 162.333,92.1667 162.167,92.8333 162,93.5C 160.373,91.688 158.873,91.5213 157.5,93C 160.031,99.4478 158.364,104.281 152.5,107.5C 151.104,106.148 150.437,104.481 150.5,102.5C 151.182,100.159 151.849,97.8257 152.5,95.5C 153.5,95.5 154.5,95.5 155.5,95.5C 155.318,93.4086 155.652,91.4086 156.5,89.5C 154.105,83.8261 151.605,78.1594 149,72.5C 140.714,61.2127 132.048,50.2127 123,39.5C 113.112,30.9458 103.946,21.7792 95.5,12C 88.3066,9.70162 81.3066,9.53495 74.5,11.5 Z"/></g>
<g><path style="opacity:1" fill="#100d07" d="M 305.5,15.5 C 306.5,15.5 307.5,15.5 308.5,15.5C 308.657,16.8734 308.49,18.2068 308,19.5C 303.652,20.1131 302.819,21.9464 305.5,25C 308.435,25.1008 309.769,26.6008 309.5,29.5C 309.707,35.3514 307.873,40.3514 304,44.5C 303.44,50.9041 303.94,57.2375 305.5,63.5C 305,65.5 304.5,67.5 304,69.5C 300.636,74.2235 297.636,79.2235 295,84.5C 296.188,91.6013 293.854,97.268 288,101.5C 284.986,106.865 281.986,112.199 279,117.5C 278.471,119.585 278.971,121.418 280.5,123C 280.355,123.772 280.022,124.439 279.5,125C 281.037,126.11 281.703,127.61 281.5,129.5C 278.454,128.606 275.454,128.439 272.5,129C 267.648,125.259 267.315,121.259 271.5,117C 270.207,116.51 268.873,116.343 267.5,116.5C 268.692,113.281 270.026,110.115 271.5,107C 270.507,104.547 270.34,102.047 271,99.5C 274.519,92.6206 277.852,85.6206 281,78.5C 281.667,76.8333 281.667,75.1667 281,73.5C 278.667,75.5 276.333,77.5 274,79.5C 270.214,86.2855 266.881,93.2855 264,100.5C 260.853,105.16 256.686,106.493 251.5,104.5C 251.737,101.353 252.57,98.3527 254,95.5C 259.14,89.0879 262.14,81.7545 263,73.5C 265.26,68.6439 268.26,64.3105 272,60.5C 271.667,58.1667 271.333,55.8333 271,53.5C 278.925,44.0722 285.425,33.7389 290.5,22.5C 294.968,18.8165 299.968,16.4831 305.5,15.5 Z"/></g>
<g><path style="opacity:1" fill="#89653d" d="M 306.5,16.5 C 307.525,16.8966 307.692,17.5632 307,18.5C 302.076,19.7741 301.243,22.4408 304.5,26.5C 305.274,27.7112 306.107,27.7112 307,26.5C 308.897,32.8503 307.563,38.517 303,43.5C 302.286,50.2659 302.786,56.9325 304.5,63.5C 303.79,66.6731 302.623,69.6731 301,72.5C 298.434,75.9516 296.101,79.6183 294,83.5C 295.208,90.5269 292.875,96.1936 287,100.5C 283.266,106.726 279.766,113.059 276.5,119.5C 277.313,120.814 278.313,121.981 279.5,123C 278.167,123.333 276.833,123.667 275.5,124C 277.455,124.953 279.122,126.287 280.5,128C 278.3,127.416 276.133,127.582 274,128.5C 268.213,124.51 268.047,120.343 273.5,116C 273.167,115.5 272.833,115 272.5,114.5C 267.912,115.823 267.578,115.323 271.5,113C 271.043,112.586 270.709,112.086 270.5,111.5C 271.5,110.167 272.5,108.833 273.5,107.5C 271.031,104.287 270.864,100.953 273,97.5C 276.357,90.6198 279.857,83.7864 283.5,77C 282.883,74.2423 282.716,71.409 283,68.5C 280.333,72.5 277,75.8333 273,78.5C 269.214,85.2855 265.881,92.2855 263,99.5C 260.253,103.991 256.753,104.991 252.5,102.5C 256.738,94.505 260.738,86.005 264.5,77C 264.043,76.586 263.709,76.086 263.5,75.5C 265.924,70.3141 269.091,65.6474 273,61.5C 273.896,58.975 273.396,56.8083 271.5,55C 276.638,47.8547 281.804,40.688 287,33.5C 288.562,31.0427 289.562,28.376 290,25.5C 294.476,20.514 299.976,17.514 306.5,16.5 Z"/></g>
<g><path style="opacity:1" fill="#fa5b03" d="M 70.5,19.5 C 72.3783,20.874 73.3783,22.874 73.5,25.5C 71.1939,32.3919 69.3605,39.3919 68,46.5C 67.5,44 67,41.5 66.5,39C 68.7951,32.691 70.1284,26.191 70.5,19.5 Z"/></g>
<g><path style="opacity:1" fill="#100c07" d="M 151.5,94.5 C 151.5,94.8333 151.5,95.1667 151.5,95.5C 149.61,95.7035 148.11,95.0368 147,93.5C 146.853,96.1104 146.019,98.4437 144.5,100.5C 146.251,103.855 145.417,106.188 142,107.5C 138.769,107.111 135.769,106.111 133,104.5C 132.667,103.5 132.333,102.5 132,101.5C 125.876,97.8536 123.876,92.5203 126,85.5C 126.554,83.3904 127.388,81.3904 128.5,79.5C 126.97,77.2024 127.304,75.3691 129.5,74C 125.694,70.1937 121.86,66.3604 118,62.5C 116.896,58.8163 115.73,55.1496 114.5,51.5C 110.548,46.1263 105.381,42.4597 99,40.5C 96.8372,40.4947 95.3372,41.4947 94.5,43.5C 98.7531,44.251 102.753,45.5843 106.5,47.5C 107.244,50.9496 105.91,52.6162 102.5,52.5C 102.5,53.5 102.5,54.5 102.5,55.5C 98.081,56.5421 93.7477,57.8755 89.5,59.5C 90.3347,51.4314 89.0014,50.7647 85.5,57.5C 86.2692,62.9238 88.1026,67.9238 91,72.5C 91.1845,76.6563 92.0179,80.6563 93.5,84.5C 96.2456,86.6229 99.079,88.6229 102,90.5C 103.565,94.3998 105.565,98.0665 108,101.5C 108.402,100.128 108.902,98.7946 109.5,97.5C 110.651,96.269 111.817,96.269 113,97.5C 114.822,103.126 116.322,108.792 117.5,114.5C 114.19,114.539 111.524,113.206 109.5,110.5C 108.41,111.391 108.41,112.391 109.5,113.5C 114.341,116.421 119.341,119.088 124.5,121.5C 128.801,118.1 133.135,117.934 137.5,121C 138.38,122.356 138.714,123.856 138.5,125.5C 137.209,125.263 136.209,125.596 135.5,126.5C 134.081,127.451 132.415,127.784 130.5,127.5C 132.617,125.937 134.95,124.604 137.5,123.5C 135.971,121.812 134.137,120.479 132,119.5C 129.121,121.573 125.954,122.407 122.5,122C 118.167,119.833 113.833,117.667 109.5,115.5C 107.347,113.071 106.681,110.404 107.5,107.5C 110.196,108.851 112.53,110.684 114.5,113C 115.483,113.591 116.15,113.257 116.5,112C 114.737,107.094 112.904,102.261 111,97.5C 110.185,99.6228 109.185,101.623 108,103.5C 105.148,99.7958 102.815,95.7958 101,91.5C 97.1043,89.6444 93.9377,86.9778 91.5,83.5C 90.8367,80.1942 90.3367,76.8608 90,73.5C 86.462,68.0142 84.7954,62.0142 85,55.5C 86.0333,52.9673 87.8666,51.3006 90.5,50.5C 92.8008,51.2688 92.9675,52.2688 91,53.5C 90.3333,55.1667 90.3333,56.8333 91,58.5C 94.1464,56.1744 97.6464,54.841 101.5,54.5C 101.5,53.5 101.5,52.5 101.5,51.5C 103.346,51.7778 104.68,51.1112 105.5,49.5C 104.726,48.2888 103.893,48.2888 103,49.5C 102.517,48.552 102.351,47.552 102.5,46.5C 99.1212,46.112 95.7879,45.4453 92.5,44.5C 94.2856,39.8195 97.6189,38.3195 102.5,40C 104.596,41.7658 106.929,43.0991 109.5,44C 111.393,46.3031 113.393,48.4698 115.5,50.5C 116.73,54.1496 117.896,57.8163 119,61.5C 122.86,65.3604 126.694,69.1937 130.5,73C 136.577,75.3809 141.91,79.0476 146.5,84C 147.332,84.6877 147.998,84.521 148.5,83.5C 145.599,76.4312 140.765,71.0978 134,67.5C 132.535,68.3295 131.035,68.4962 129.5,68C 126.447,64.6134 123.78,60.9467 121.5,57C 122.293,55.9148 122.96,54.7481 123.5,53.5C 118.529,46.3949 113.196,39.5616 107.5,33C 103.36,32.2001 100.36,29.8668 98.5,26C 94.4941,24.9127 90.6608,23.4127 87,21.5C 84.3145,22.6759 81.9812,24.3425 80,26.5C 77.1955,35.7156 74.6955,45.049 72.5,54.5C 72.7451,56.7448 72.7451,59.0781 72.5,61.5C 75.0963,66.3595 77.263,71.3595 79,76.5C 79.9404,83.1806 80.9404,89.8472 82,96.5C 82.6912,99.266 84.1912,99.9327 86.5,98.5C 91.526,101.359 95.3593,105.359 98,110.5C 100.292,111.79 102.292,113.457 104,115.5C 104.563,116.725 104.23,117.725 103,118.5C 100.546,117.802 98.2129,116.802 96,115.5C 95.2506,116.635 95.4173,117.635 96.5,118.5C 104.638,124.562 113.472,126.229 123,123.5C 125.56,123.901 127.393,125.234 128.5,127.5C 128.5,127.833 128.5,128.167 128.5,128.5C 126.856,127.04 125.023,125.707 123,124.5C 113.066,127.301 103.899,125.634 95.5,119.5C 94.5481,117.955 94.2148,116.288 94.5,114.5C 97.1595,115.347 99.8262,115.847 102.5,116C 97.9572,111.113 93.2906,106.279 88.5,101.5C 86.2906,100.894 84.124,100.227 82,99.5C 80.0706,92.3064 78.7372,84.9731 78,77.5C 76.2459,72.7645 74.2459,68.0978 72,63.5C 71.3584,56.0592 72.0251,48.7259 74,41.5C 76.6573,36.5253 78.324,31.192 79,25.5C 80.7309,23.3834 82.8976,21.8834 85.5,21C 90.2641,21.6989 94.9308,23.0322 99.5,25C 101.36,28.8668 104.36,31.2001 108.5,32C 113.691,37.5567 118.524,43.39 123,49.5C 123.781,50.7287 124.281,52.062 124.5,53.5C 123.772,55.1547 123.605,56.8214 124,58.5C 126.333,61.5 128.667,64.5 131,67.5C 132.726,66.4238 134.559,66.2571 136.5,67C 140.299,69.7969 143.799,72.9636 147,76.5C 148.023,82.6889 149.523,88.6889 151.5,94.5 Z"/></g>
<g><path style="opacity:1" fill="#89653d" d="M 130.5,127.5 C 129.833,127.5 129.167,127.5 128.5,127.5C 127.393,125.234 125.56,123.901 123,123.5C 113.472,126.229 104.638,124.562 96.5,118.5C 95.4173,117.635 95.2506,116.635 96,115.5C 98.2129,116.802 100.546,117.802 103,118.5C 104.23,117.725 104.563,116.725 104,115.5C 102.292,113.457 100.292,111.79 98,110.5C 95.3593,105.359 91.526,101.359 86.5,98.5C 84.1912,99.9327 82.6912,99.266 82,96.5C 80.9404,89.8472 79.9404,83.1806 79,76.5C 77.263,71.3595 75.0963,66.3595 72.5,61.5C 72.7451,59.0781 72.7451,56.7448 72.5,54.5C 74.6955,45.049 77.1955,35.7156 80,26.5C 81.9812,24.3425 84.3145,22.6759 87,21.5C 90.6608,23.4127 94.4941,24.9127 98.5,26C 100.36,29.8668 103.36,32.2001 107.5,33C 113.196,39.5616 118.529,46.3949 123.5,53.5C 122.96,54.7481 122.293,55.9148 121.5,57C 123.78,60.9467 126.447,64.6134 129.5,68C 131.035,68.4962 132.535,68.3295 134,67.5C 140.765,71.0978 145.599,76.4312 148.5,83.5C 147.998,84.521 147.332,84.6877 146.5,84C 141.91,79.0476 136.577,75.3809 130.5,73C 126.694,69.1937 122.86,65.3604 119,61.5C 117.896,57.8163 116.73,54.1496 115.5,50.5C 113.393,48.4698 111.393,46.3031 109.5,44C 106.929,43.0991 104.596,41.7658 102.5,40C 97.6189,38.3195 94.2856,39.8195 92.5,44.5C 95.7879,45.4453 99.1212,46.112 102.5,46.5C 102.351,47.552 102.517,48.552 103,49.5C 103.893,48.2888 104.726,48.2888 105.5,49.5C 104.68,51.1112 103.346,51.7778 101.5,51.5C 101.5,52.5 101.5,53.5 101.5,54.5C 97.6464,54.841 94.1464,56.1744 91,58.5C 90.3333,56.8333 90.3333,55.1667 91,53.5C 92.9675,52.2688 92.8008,51.2688 90.5,50.5C 87.8666,51.3006 86.0333,52.9673 85,55.5C 84.7954,62.0142 86.462,68.0142 90,73.5C 90.3367,76.8608 90.8367,80.1942 91.5,83.5C 93.9377,86.9778 97.1043,89.6444 101,91.5C 102.815,95.7958 105.148,99.7958 108,103.5C 109.185,101.623 110.185,99.6228 111,97.5C 112.904,102.261 114.737,107.094 116.5,112C 116.15,113.257 115.483,113.591 114.5,113C 112.53,110.684 110.196,108.851 107.5,107.5C 106.681,110.404 107.347,113.071 109.5,115.5C 113.833,117.667 118.167,119.833 122.5,122C 125.954,122.407 129.121,121.573 132,119.5C 134.137,120.479 135.971,121.812 137.5,123.5C 134.95,124.604 132.617,125.937 130.5,127.5 Z"/></g>
<g><path style="opacity:1" fill="#fc5b00" d="M 249.5,93.5 C 247.412,94.9395 245.079,95.6061 242.5,95.5C 242.472,93.4176 243.139,91.5843 244.5,90C 240.969,90.2847 237.469,90.4514 234,90.5C 232.488,89.7433 231.154,88.7433 230,87.5C 230.475,84.527 231.641,81.8604 233.5,79.5C 230.735,79.7976 228.235,80.7976 226,82.5C 225.493,81.0039 225.993,79.8373 227.5,79C 225.331,78.5706 223.331,79.0706 221.5,80.5C 215.488,79.1328 215.821,77.2995 222.5,75C 224.53,73.1038 226.197,70.9371 227.5,68.5C 234.995,66.4188 241.995,63.2521 248.5,59C 256.368,50.9642 264.368,43.1309 272.5,35.5C 274.814,33.5227 277.147,31.5227 279.5,29.5C 280.583,30.365 280.749,31.365 280,32.5C 274.712,39.7892 268.712,46.4559 262,52.5C 257.496,58.5089 254.329,65.1756 252.5,72.5C 251.5,73.3333 250.5,74.1667 249.5,75C 250.938,75.2189 252.271,75.7189 253.5,76.5C 252.164,82.1738 250.83,87.8405 249.5,93.5 Z"/></g>
<g><path style="opacity:1" fill="#1f0a00" d="M 272.5,35.5 C 264.368,43.1309 256.368,50.9642 248.5,59C 241.995,63.2521 234.995,66.4188 227.5,68.5C 226.197,70.9371 224.53,73.1038 222.5,75C 215.821,77.2995 215.488,79.1328 221.5,80.5C 223.331,79.0706 225.331,78.5706 227.5,79C 225.993,79.8373 225.493,81.0039 226,82.5C 228.235,80.7976 230.735,79.7976 233.5,79.5C 231.641,81.8604 230.475,84.527 230,87.5C 231.154,88.7433 232.488,89.7433 234,90.5C 237.469,90.4514 240.969,90.2847 244.5,90C 243.139,91.5843 242.472,93.4176 242.5,95.5C 245.079,95.6061 247.412,94.9395 249.5,93.5C 249.423,94.7498 248.756,95.5831 247.5,96C 245.527,96.4955 243.527,96.6621 241.5,96.5C 241.5,94.8333 241.5,93.1667 241.5,91.5C 238.328,91.0719 235.328,90.9052 232.5,91C 231.069,90.5348 229.903,89.7014 229,88.5C 228.922,86.3435 228.755,84.3435 228.5,82.5C 227.264,83.2458 225.93,83.5792 224.5,83.5C 224.649,82.448 224.483,81.448 224,80.5C 221.25,81.2911 218.417,81.2911 215.5,80.5C 215.872,76.9567 217.872,74.79 221.5,74C 223.53,72.1038 225.197,69.9371 226.5,67.5C 233.995,65.4188 240.995,62.2521 247.5,58C 255.102,49.5587 263.435,42.0587 272.5,35.5 Z"/></g>
<g><path style="opacity:1" fill="#89653d" d="M 128.5,76.5 C 128.56,75.9569 128.893,75.6236 129.5,75.5C 133.957,80.7666 137.291,86.5999 139.5,93C 142.559,95.0342 144.225,94.0342 144.5,90C 141.756,86.4059 142.589,85.2393 147,86.5C 148.665,89.0783 149.665,91.7449 150,94.5C 148.445,92.4848 146.611,92.1515 144.5,93.5C 145.309,95.0709 145.643,96.7376 145.5,98.5C 144.325,98.281 143.325,98.6143 142.5,99.5C 145.21,102.169 145.043,104.502 142,106.5C 139.416,105.896 136.916,105.063 134.5,104C 133.761,100.927 131.928,98.7598 129,97.5C 127.692,95.8657 126.858,94.0324 126.5,92C 127.166,90.3313 127.166,88.8313 126.5,87.5C 127.196,84.139 128.196,81.639 129.5,80C 129.486,78.6153 129.152,77.4486 128.5,76.5 Z"/></g>
<g><path style="opacity:1" fill="#fc5a00" d="M 259.5,123.5 C 255.157,121.912 250.99,119.912 247,117.5C 245.933,118.191 244.766,118.691 243.5,119C 246.549,123.716 250.549,127.382 255.5,130C 254.269,131.183 254.269,132.349 255.5,133.5C 257.453,134.761 259.453,135.927 261.5,137C 260.167,138 260.167,139 261.5,140C 265.035,141.706 268.702,143.04 272.5,144C 270.757,145.11 269.424,146.61 268.5,148.5C 265.94,147.565 265.274,148.399 266.5,151C 264.793,151.195 263.126,151.195 261.5,151C 260.833,152.333 260.167,153.667 259.5,155C 260.22,160.242 261.387,165.409 263,170.5C 264.147,171.458 265.147,171.125 266,169.5C 267.113,168.24 267.28,167.073 266.5,166C 267.744,165.544 268.577,166.044 269,167.5C 271.248,164.672 273.248,161.672 275,158.5C 276.113,159.76 276.28,160.927 275.5,162C 278.412,162.245 281.412,162.245 284.5,162C 283.643,162.689 282.977,163.522 282.5,164.5C 285.099,165.031 287.765,165.198 290.5,165C 289.5,165.833 288.5,166.667 287.5,167.5C 289.547,169.015 291.881,169.849 294.5,170C 293.737,170.944 292.737,171.444 291.5,171.5C 287.869,170.485 284.202,170.319 280.5,171C 276.578,172.474 272.578,173.641 268.5,174.5C 264.769,182.757 262.602,191.424 262,200.5C 260.834,195.188 259.667,189.855 258.5,184.5C 261.528,175.184 259.695,166.85 253,159.5C 251.916,160.665 251.083,161.998 250.5,163.5C 251.212,166.648 251.879,169.814 252.5,173C 252.122,174.635 251.456,176.135 250.5,177.5C 248.873,169.647 247.207,161.814 245.5,154C 245.833,153.667 246.167,153.333 246.5,153C 241.811,143.121 236.977,133.287 232,123.5C 230.269,121.383 228.102,119.883 225.5,119C 222.934,112.589 218.267,109.089 211.5,108.5C 209.895,112.424 210.395,116.091 213,119.5C 221.578,128.07 228.578,137.736 234,148.5C 236,150.5 238,152.5 240,154.5C 243.263,168.683 247.93,182.35 254,195.5C 254.333,198.833 254.667,202.167 255,205.5C 258.632,208.13 261.965,211.13 265,214.5C 269.737,222.183 275.904,228.35 283.5,233C 289.009,238.511 294.176,244.344 299,250.5C 303.478,260.126 307.978,269.792 312.5,279.5C 312.167,280.5 311.5,281.167 310.5,281.5C 308.333,280.208 306,279.375 303.5,279C 293.029,278.28 283.029,280.446 273.5,285.5C 273.573,287.027 272.906,288.027 271.5,288.5C 270.761,288.631 270.094,288.464 269.5,288C 266.696,284.855 264.03,281.688 261.5,278.5C 261.5,277.167 261.5,275.833 261.5,274.5C 261.938,274.565 262.272,274.399 262.5,274C 260.128,268.757 257.628,263.59 255,258.5C 253.292,256.457 251.292,254.79 249,253.5C 247.611,249.056 245.944,244.723 244,240.5C 240.045,234.877 235.712,229.543 231,224.5C 230.517,223.552 230.351,222.552 230.5,221.5C 229.5,221.5 228.5,221.5 227.5,221.5C 227.657,220.127 227.49,218.793 227,217.5C 223.856,215.238 223.689,212.738 226.5,210C 226.031,206.92 225.865,203.754 226,200.5C 223.01,194.363 220.51,188.029 218.5,181.5C 219.675,181.719 220.675,181.386 221.5,180.5C 219.081,173.409 214.748,167.742 208.5,163.5C 208.167,164.5 207.833,165.5 207.5,166.5C 208.165,171.481 208.665,176.481 209,181.5C 211.588,184.589 213.421,188.089 214.5,192C 213.422,192.674 212.755,193.674 212.5,195C 213.741,198.777 214.241,202.61 214,206.5C 212.844,205.007 212.01,205.174 211.5,207C 212.33,208.465 212.496,209.965 212,211.5C 210.414,209.33 209.08,206.996 208,204.5C 206.516,198.75 204.849,193.083 203,187.5C 198.726,183.226 193.893,179.726 188.5,177C 182.167,176.333 175.833,176.333 169.5,177C 160.763,180.291 151.763,182.624 142.5,184C 141.643,184.689 140.977,185.522 140.5,186.5C 149.215,190.381 155.382,196.715 159,205.5C 162.986,209.339 166.986,213.005 171,216.5C 174.273,215.34 177.606,215.34 181,216.5C 185.229,215.201 189.396,213.701 193.5,212C 195.5,211.333 197.5,211.333 199.5,212C 201.657,214.322 203.99,216.489 206.5,218.5C 204.48,218.264 202.314,218.264 200,218.5C 199.837,220.387 200.671,221.887 202.5,223C 201.944,223.383 201.611,223.883 201.5,224.5C 200.5,225.833 199.5,227.167 198.5,228.5C 197.5,228.5 196.5,228.5 195.5,228.5C 194.833,228.167 194.167,227.833 193.5,227.5C 191.243,226.197 189.41,226.864 188,229.5C 187.667,229.167 187.333,228.833 187,228.5C 186.044,231.377 184.711,234.044 183,236.5C 182.667,235.833 182.333,235.167 182,234.5C 181,235.5 180,236.5 179,237.5C 179.437,235.243 179.937,232.91 180.5,230.5C 179.448,230.351 178.448,230.517 177.5,231C 176.37,233.428 174.87,235.595 173,237.5C 172.282,236.549 171.449,236.383 170.5,237C 169.382,238.074 168.382,239.24 167.5,240.5C 167.167,240.167 166.833,239.833 166.5,239.5C 167.752,237.999 168.752,236.332 169.5,234.5C 167.902,232.027 166.402,232.027 165,234.5C 164.125,232.487 162.791,232.487 161,234.5C 160.405,233.101 160.572,231.768 161.5,230.5C 158.976,228.81 156.976,226.643 155.5,224C 154.833,223.333 154.167,223.333 153.5,224C 152.315,225.353 150.981,226.52 149.5,227.5C 148.278,225.091 148.945,223.258 151.5,222C 148.985,216.557 145.652,216.057 141.5,220.5C 140.167,219.5 138.833,218.5 137.5,217.5C 137.723,216.033 138.056,214.533 138.5,213C 136.167,212.667 133.833,212.333 131.5,212C 132.376,210.414 133.376,208.914 134.5,207.5C 133.167,206.5 133.167,205.5 134.5,204.5C 134.291,203.914 133.957,203.414 133.5,203C 126.884,203.234 126.217,201.9 131.5,199C 130.579,197.244 129.412,197.077 128,198.5C 126.605,198.22 125.438,197.553 124.5,196.5C 126.833,195 129.167,193.5 131.5,192C 130.333,191.833 129.167,191.667 128,191.5C 120.824,193.782 113.657,196.282 106.5,199C 104.193,200.828 104.526,202.494 107.5,204C 97.4451,212.393 98.2784,214.226 110,209.5C 110.167,209.833 110.333,210.167 110.5,210.5C 103.785,215.022 96.4519,218.189 88.5,220C 84.5978,222.4 81.5978,225.566 79.5,229.5C 78.4537,231.785 78.4537,234.118 79.5,236.5C 77.8333,236.5 76.1667,236.5 74.5,236.5C 74.5,235.5 74.5,234.5 74.5,233.5C 76.9828,233.27 77.4828,232.603 76,231.5C 73.1459,232.114 70.3125,232.781 67.5,233.5C 64.0392,232.215 63.5392,230.215 66,227.5C 68.1303,226.859 69.6303,225.526 70.5,223.5C 69.7261,222.289 68.8928,222.289 68,223.5C 66.3331,221.372 64.1664,220.039 61.5,219.5C 62.2135,217.189 63.2135,215.022 64.5,213C 61.1031,213.994 57.7698,213.66 54.5,212C 56.9393,208.383 60.2726,206.216 64.5,205.5C 65.7612,201.188 68.2612,197.854 72,195.5C 72.4922,194.451 72.3256,193.451 71.5,192.5C 72.8333,191.5 74.1667,190.5 75.5,189.5C 76.4287,188.311 76.762,186.978 76.5,185.5C 75.448,185.649 74.448,185.483 73.5,185C 74.8019,181.866 77.1353,180.032 80.5,179.5C 81.6409,176.938 82.4743,174.272 83,171.5C 86.2477,170.558 86.7477,169.225 84.5,167.5C 87.3174,165.183 89.9841,162.683 92.5,160C 91.3147,158.647 89.9814,157.48 88.5,156.5C 86.3295,158.086 83.9962,159.42 81.5,160.5C 80.1502,159.05 78.4835,158.383 76.5,158.5C 76.281,157.325 76.6143,156.325 77.5,155.5C 81.071,154.261 81.7376,152.427 79.5,150C 81.7349,148.245 84.0682,147.578 86.5,148C 85.0506,146.883 83.3839,146.216 81.5,146C 83.1341,145.506 84.8008,145.34 86.5,145.5C 86.5,144.5 86.5,143.5 86.5,142.5C 85.325,142.719 84.325,142.386 83.5,141.5C 85.3279,140.205 87.3279,139.205 89.5,138.5C 85.7436,131.255 81.4103,124.422 76.5,118C 76.5897,109.871 75.2564,101.871 72.5,94C 72.6942,90.2 73.6942,86.3667 75.5,82.5C 74.3389,91.8372 76.1723,100.837 81,109.5C 84.9439,110.943 87.7772,113.609 89.5,117.5C 88.5,118.167 87.5,118.833 86.5,119.5C 87.982,121.483 89.6487,123.316 91.5,125C 98.1516,129.24 104.985,133.074 112,136.5C 114.151,136.227 116.151,135.561 118,134.5C 122.31,135.785 126.143,134.785 129.5,131.5C 130.711,130.726 130.711,129.893 129.5,129C 132.561,128.465 135.561,128.132 138.5,128C 132.966,130.196 128.633,133.863 125.5,139C 124.216,139.684 123.049,139.517 122,138.5C 121.5,139 121,139.5 120.5,140C 124.956,140.867 129.289,140.534 133.5,139C 138.289,134.202 143.623,130.202 149.5,127C 149.509,125.27 149.842,123.437 150.5,121.5C 152.225,120.985 153.892,120.318 155.5,119.5C 154.429,117.675 155.096,116.508 157.5,116C 157.167,115.667 156.833,115.333 156.5,115C 158.459,114.069 160.459,113.236 162.5,112.5C 163.423,106.705 166.257,105.372 171,108.5C 171.5,108.167 172,107.833 172.5,107.5C 169.675,103.117 170.508,99.4503 175,96.5C 175.333,93.1667 175.667,89.8333 176,86.5C 176.308,87.3081 176.808,87.9747 177.5,88.5C 178.845,87.6533 179.845,86.4866 180.5,85C 183.379,82.9624 186.046,83.1291 188.5,85.5C 190.413,84.627 192.247,83.627 194,82.5C 195,84.1667 196,85.8333 197,87.5C 201.143,84.8353 205.643,84.002 210.5,85C 203.68,88.8221 203.847,89.6554 211,87.5C 212.5,88 214,88.5 215.5,89C 215.043,89.414 214.709,89.914 214.5,90.5C 215.912,91.8064 217.579,92.6397 219.5,93C 218.376,93.2492 217.376,93.7492 216.5,94.5C 224.297,98.291 232.297,101.624 240.5,104.5C 240.291,105.086 239.957,105.586 239.5,106C 243.084,109.416 247.084,112.249 251.5,114.5C 252.427,116.113 253.261,117.779 254,119.5C 256.167,120.488 258,121.821 259.5,123.5 Z"/></g>
<g><path style="opacity:1" fill="#200b00" d="M 273.5,285.5 C 283.029,280.446 293.029,278.28 303.5,279C 306,279.375 308.333,280.208 310.5,281.5C 311.5,281.167 312.167,280.5 312.5,279.5C 307.978,269.792 303.478,260.126 299,250.5C 294.176,244.344 289.009,238.511 283.5,233C 275.904,228.35 269.737,222.183 265,214.5C 261.965,211.13 258.632,208.13 255,205.5C 254.667,202.167 254.333,198.833 254,195.5C 247.93,182.35 243.263,168.683 240,154.5C 238,152.5 236,150.5 234,148.5C 228.578,137.736 221.578,128.07 213,119.5C 210.395,116.091 209.895,112.424 211.5,108.5C 218.267,109.089 222.934,112.589 225.5,119C 228.102,119.883 230.269,121.383 232,123.5C 236.977,133.287 241.811,143.121 246.5,153C 246.167,153.333 245.833,153.667 245.5,154C 247.207,161.814 248.873,169.647 250.5,177.5C 251.456,176.135 252.122,174.635 252.5,173C 251.879,169.814 251.212,166.648 250.5,163.5C 251.083,161.998 251.916,160.665 253,159.5C 259.695,166.85 261.528,175.184 258.5,184.5C 259.667,189.855 260.834,195.188 262,200.5C 262.602,191.424 264.769,182.757 268.5,174.5C 272.578,173.641 276.578,172.474 280.5,171C 284.202,170.319 287.869,170.485 291.5,171.5C 292.737,171.444 293.737,170.944 294.5,170C 291.881,169.849 289.547,169.015 287.5,167.5C 288.5,166.667 289.5,165.833 290.5,165C 287.765,165.198 285.099,165.031 282.5,164.5C 282.977,163.522 283.643,162.689 284.5,162C 281.412,162.245 278.412,162.245 275.5,162C 276.28,160.927 276.113,159.76 275,158.5C 273.248,161.672 271.248,164.672 269,167.5C 268.577,166.044 267.744,165.544 266.5,166C 267.28,167.073 267.113,168.24 266,169.5C 265.147,171.125 264.147,171.458 263,170.5C 261.387,165.409 260.22,160.242 259.5,155C 260.167,153.667 260.833,152.333 261.5,151C 263.126,151.195 264.793,151.195 266.5,151C 265.274,148.399 265.94,147.565 268.5,148.5C 269.424,146.61 270.757,145.11 272.5,144C 268.702,143.04 265.035,141.706 261.5,140C 260.167,139 260.167,138 261.5,137C 259.453,135.927 257.453,134.761 255.5,133.5C 254.269,132.349 254.269,131.183 255.5,130C 250.549,127.382 246.549,123.716 243.5,119C 244.766,118.691 245.933,118.191 247,117.5C 250.99,119.912 255.157,121.912 259.5,123.5C 258,121.821 256.167,120.488 254,119.5C 253.261,117.779 252.427,116.113 251.5,114.5C 247.084,112.249 243.084,109.416 239.5,106C 239.957,105.586 240.291,105.086 240.5,104.5C 232.297,101.624 224.297,98.291 216.5,94.5C 217.376,93.7492 218.376,93.2492 219.5,93C 217.579,92.6397 215.912,91.8064 214.5,90.5C 214.709,89.914 215.043,89.414 215.5,89C 214,88.5 212.5,88 211,87.5C 203.847,89.6554 203.68,88.8221 210.5,85C 205.643,84.002 201.143,84.8353 197,87.5C 196,85.8333 195,84.1667 194,82.5C 192.247,83.627 190.413,84.627 188.5,85.5C 186.046,83.1291 183.379,82.9624 180.5,85C 179.845,86.4866 178.845,87.6533 177.5,88.5C 176.808,87.9747 176.308,87.3081 176,86.5C 175.667,89.8333 175.333,93.1667 175,96.5C 170.508,99.4503 169.675,103.117 172.5,107.5C 172,107.833 171.5,108.167 171,108.5C 166.257,105.372 163.423,106.705 162.5,112.5C 160.459,113.236 158.459,114.069 156.5,115C 156.833,115.333 157.167,115.667 157.5,116C 155.096,116.508 154.429,117.675 155.5,119.5C 153.892,120.318 152.225,120.985 150.5,121.5C 149.842,123.437 149.509,125.27 149.5,127C 143.623,130.202 138.289,134.202 133.5,139C 129.289,140.534 124.956,140.867 120.5,140C 121,139.5 121.5,139 122,138.5C 123.049,139.517 124.216,139.684 125.5,139C 128.633,133.863 132.966,130.196 138.5,128C 135.561,128.132 132.561,128.465 129.5,129C 130.711,129.893 130.711,130.726 129.5,131.5C 126.143,134.785 122.31,135.785 118,134.5C 116.151,135.561 114.151,136.227 112,136.5C 104.985,133.074 98.1516,129.24 91.5,125C 89.6487,123.316 87.982,121.483 86.5,119.5C 87.5,118.833 88.5,118.167 89.5,117.5C 87.7772,113.609 84.9439,110.943 81,109.5C 76.1723,100.837 74.3389,91.8372 75.5,82.5C 73.6942,86.3667 72.6942,90.2 72.5,94C 75.2564,101.871 76.5897,109.871 76.5,118C 81.4103,124.422 85.7436,131.255 89.5,138.5C 87.3279,139.205 85.3279,140.205 83.5,141.5C 84.325,142.386 85.325,142.719 86.5,142.5C 86.5,143.5 86.5,144.5 86.5,145.5C 84.8008,145.34 83.1341,145.506 81.5,146C 83.3839,146.216 85.0506,146.883 86.5,148C 84.0682,147.578 81.7349,148.245 79.5,150C 81.7376,152.427 81.071,154.261 77.5,155.5C 76.6143,156.325 76.281,157.325 76.5,158.5C 78.4835,158.383 80.1502,159.05 81.5,160.5C 83.9962,159.42 86.3295,158.086 88.5,156.5C 89.9814,157.48 91.3147,158.647 92.5,160C 89.9841,162.683 87.3174,165.183 84.5,167.5C 86.7477,169.225 86.2477,170.558 83,171.5C 82.4743,174.272 81.6409,176.938 80.5,179.5C 77.1353,180.032 74.8019,181.866 73.5,185C 74.448,185.483 75.448,185.649 76.5,185.5C 76.762,186.978 76.4287,188.311 75.5,189.5C 74.1667,190.5 72.8333,191.5 71.5,192.5C 72.3256,193.451 72.4922,194.451 72,195.5C 68.2612,197.854 65.7612,201.188 64.5,205.5C 60.2726,206.216 56.9393,208.383 54.5,212C 57.7698,213.66 61.1031,213.994 64.5,213C 63.2135,215.022 62.2135,217.189 61.5,219.5C 64.1664,220.039 66.3331,221.372 68,223.5C 68.8928,222.289 69.7261,222.289 70.5,223.5C 69.6303,225.526 68.1303,226.859 66,227.5C 63.5392,230.215 64.0392,232.215 67.5,233.5C 70.3125,232.781 73.1459,232.114 76,231.5C 77.4828,232.603 76.9828,233.27 74.5,233.5C 71.4752,233.877 68.4752,234.044 65.5,234C 63.2132,231.757 63.0465,229.257 65,226.5C 66.0674,225.809 67.2341,225.309 68.5,225C 66.8839,224.385 65.5505,223.385 64.5,222C 63.2068,221.51 61.8734,221.343 60.5,221.5C 60.6741,219.139 61.0074,216.806 61.5,214.5C 58.7938,214.425 56.1272,214.092 53.5,213.5C 54.893,208.444 58.2264,205.444 63.5,204.5C 66.1861,199.788 68.8528,195.122 71.5,190.5C 72.8333,189.5 74.1667,188.5 75.5,187.5C 74.675,186.614 73.675,186.281 72.5,186.5C 72.9789,182.208 75.3122,179.541 79.5,178.5C 80.9179,170.97 84.5846,164.803 90.5,160C 89.9747,159.308 89.3081,158.808 88.5,158.5C 85.7659,160.371 82.7659,161.371 79.5,161.5C 79.6261,163.2 80.2927,164.7 81.5,166C 78.4861,170.256 74.4861,171.423 69.5,169.5C 69.1667,166.5 70.5,165.167 73.5,165.5C 73.5,163.833 73.5,162.167 73.5,160.5C 75.1992,160.66 76.8659,160.494 78.5,160C 77.552,159.517 76.552,159.351 75.5,159.5C 75.1058,156.143 76.4391,153.81 79.5,152.5C 79.0688,151.707 78.7355,150.873 78.5,150C 79.8561,148.433 80.5228,146.6 80.5,144.5C 82.1992,144.66 83.8659,144.494 85.5,144C 84.552,143.517 83.552,143.351 82.5,143.5C 82.3501,140.057 84.0168,138.057 87.5,137.5C 84.2538,131.423 80.4204,125.757 76,120.5C 75.2571,118.559 75.4238,116.726 76.5,115C 74.89,107.516 73.2234,100.016 71.5,92.5C 72.1713,88.824 72.838,85.1573 73.5,81.5C 74.8333,81.5 76.1667,81.5 77.5,81.5C 75.328,91.0943 76.828,100.094 82,108.5C 86.372,110.039 89.2054,113.039 90.5,117.5C 90.1822,118.647 89.5156,119.481 88.5,120C 95.8017,125.968 103.635,131.134 112,135.5C 114,134.833 116,134.167 118,133.5C 121.059,134.713 123.892,134.213 126.5,132C 127.823,131.184 128.489,130.017 128.5,128.5C 128.5,128.167 128.5,127.833 128.5,127.5C 129.167,127.5 129.833,127.5 130.5,127.5C 132.415,127.784 134.081,127.451 135.5,126.5C 136.833,126.5 138.167,126.5 139.5,126.5C 139.67,127.822 139.337,128.989 138.5,130C 133.645,131.52 129.978,134.52 127.5,139C 130.522,139.164 133.189,138.164 135.5,136C 139.23,131.821 143.564,128.655 148.5,126.5C 147.685,122.167 149.352,119.834 153.5,119.5C 154.11,114.89 156.776,112.223 161.5,111.5C 162.419,106.06 165.419,104.227 170.5,106C 168.893,101.688 170.059,98.1879 174,95.5C 174.498,92.1832 174.665,88.8499 174.5,85.5C 175.822,85.33 176.989,85.6634 178,86.5C 180.794,82.7346 184.461,81.7346 189,83.5C 190.667,82.8333 192.333,82.1667 194,81.5C 195.765,82.2321 196.932,83.5654 197.5,85.5C 197.478,84.0048 197.811,82.3381 198.5,80.5C 200.071,79.6906 201.738,79.3573 203.5,79.5C 203.67,80.8221 203.337,81.9887 202.5,83C 205.482,83.498 208.482,83.6646 211.5,83.5C 211.746,86.4701 213.412,87.8034 216.5,87.5C 216.167,90.5 217.5,91.8333 220.5,91.5C 220.281,92.675 220.614,93.675 221.5,94.5C 226.292,96.7988 230.959,99.2988 235.5,102C 237.473,102.495 239.473,102.662 241.5,102.5C 241.343,103.873 241.51,105.207 242,106.5C 245.242,109.205 248.742,111.539 252.5,113.5C 253.406,115.386 254.406,117.22 255.5,119C 263.069,123.566 270.069,128.899 276.5,135C 277.448,135.483 278.448,135.649 279.5,135.5C 279.5,136.833 279.5,138.167 279.5,139.5C 273.405,138.414 267.739,136.247 262.5,133C 260.325,130.475 258.658,127.642 257.5,124.5C 243.336,117.911 242.836,119.244 256,128.5C 256.684,129.784 256.517,130.951 255.5,132C 257.275,133.439 259.275,134.439 261.5,135C 263.324,139.931 266.991,142.431 272.5,142.5C 272.833,143 273.167,143.5 273.5,144C 271.888,145.482 270.888,147.315 270.5,149.5C 269.5,149.5 268.5,149.5 267.5,149.5C 267.5,150.5 267.5,151.5 267.5,152.5C 265.5,152.5 263.5,152.5 261.5,152.5C 261.152,158.362 261.985,164.028 264,169.5C 265.269,168.095 265.769,166.429 265.5,164.5C 267.288,164.785 268.955,164.452 270.5,163.5C 271.3,160.867 272.8,158.867 275,157.5C 276.169,158.009 277.002,158.842 277.5,160C 280.146,160.497 282.813,160.664 285.5,160.5C 285.5,161.5 285.5,162.5 285.5,163.5C 287.5,163.5 289.5,163.5 291.5,163.5C 291.579,164.93 291.246,166.264 290.5,167.5C 292.045,168.452 293.712,168.785 295.5,168.5C 295.863,170.911 294.863,172.411 292.5,173C 296.638,172.782 297.972,174.448 296.5,178C 297.448,178.483 298.448,178.649 299.5,178.5C 299.919,181.325 298.919,183.491 296.5,185C 299.035,185.928 300.035,187.762 299.5,190.5C 296.939,190.447 294.939,191.447 293.5,193.5C 296.344,197.441 296.011,201.107 292.5,204.5C 293.246,205.736 293.579,207.07 293.5,208.5C 289.433,208.371 288.433,209.538 290.5,212C 289.899,214.637 288.233,215.804 285.5,215.5C 285.5,216.5 285.5,217.5 285.5,218.5C 283.519,219.348 281.519,219.848 279.5,220C 277.499,217.516 274.999,215.683 272,214.5C 271.517,213.552 271.351,212.552 271.5,211.5C 278.61,209.899 283.444,205.565 286,198.5C 286.719,193.799 286.553,189.133 285.5,184.5C 286.139,181.525 286.639,178.525 287,175.5C 287.833,174.667 288.667,173.833 289.5,173C 287.045,171.46 284.379,171.126 281.5,172C 277.038,173.317 272.704,174.817 268.5,176.5C 265.289,184.565 263.623,192.898 263.5,201.5C 261.876,201.64 260.71,200.973 260,199.5C 259.574,194.42 258.74,189.42 257.5,184.5C 257.752,181.41 258.419,178.41 259.5,175.5C 257.593,170.688 255.426,166.021 253,161.5C 253.103,167.214 252.937,172.881 252.5,178.5C 251.127,178.343 249.793,178.51 248.5,179C 252.58,187.005 255.08,195.505 256,204.5C 259.632,207.13 262.965,210.13 266,213.5C 270.737,221.183 276.904,227.35 284.5,232C 290.009,237.511 295.176,243.344 300,249.5C 305.488,259.794 309.821,270.46 313,281.5C 312.275,282.059 311.442,282.392 310.5,282.5C 306.97,281.034 303.303,280.034 299.5,279.5C 290.597,280.559 281.93,282.559 273.5,285.5 Z"/></g>
<g><path style="opacity:1" fill="#fc5b00" d="M 200.5,80.5 C 201.239,80.369 201.906,80.5357 202.5,81C 201.421,81.956 200.255,82.7894 199,83.5C 198.761,82.212 199.261,81.212 200.5,80.5 Z"/></g>
<g><path style="opacity:1" fill="#000000" d="M 212.5,109.5 C 218.011,110.841 221.845,114.175 224,119.5C 228.667,121.5 232,124.833 234,129.5C 237.077,136.652 240.41,143.652 244,150.5C 246.221,158.375 247.221,166.375 247,174.5C 243.99,167.802 241.99,160.802 241,153.5C 239,151.5 237,149.5 235,147.5C 229.578,136.736 222.578,127.07 214,118.5C 211.593,115.732 211.093,112.732 212.5,109.5 Z"/></g>
<g><path style="opacity:1" fill="#200b00" d="M 117.5,153.5 C 117.414,152.504 117.748,151.671 118.5,151C 121.289,150.759 123.956,150.092 126.5,149C 123.556,148.03 120.556,147.196 117.5,146.5C 122.071,145.178 126.738,144.345 131.5,144C 136.657,142.263 140.324,138.93 142.5,134C 147.489,132.808 152.155,130.975 156.5,128.5C 157.211,124.618 159.544,122.118 163.5,121C 161.423,120.808 159.423,120.308 157.5,119.5C 161.795,118.339 166.129,118.172 170.5,119C 171.167,119.667 171.833,120.333 172.5,121C 170.941,121.98 169.274,122.813 167.5,123.5C 169.833,124.167 172.167,124.833 174.5,125.5C 174.331,127.117 173.997,128.784 173.5,130.5C 172.784,129.689 171.95,129.022 171,128.5C 167.158,129.068 163.325,129.735 159.5,130.5C 158.985,132.225 158.318,133.892 157.5,135.5C 152.91,137.762 148.91,140.762 145.5,144.5C 143.775,145.015 142.108,145.682 140.5,146.5C 142.149,147.148 143.482,148.148 144.5,149.5C 142.887,151.088 140.887,152.088 138.5,152.5C 137.325,151.145 136.325,151.312 135.5,153C 136.337,154.011 136.67,155.178 136.5,156.5C 133.092,157.367 129.758,158.533 126.5,160C 126.273,161.135 125.94,162.302 125.5,163.5C 124.264,164.246 122.93,164.579 121.5,164.5C 121.773,166.451 121.107,167.951 119.5,169C 119.957,169.414 120.291,169.914 120.5,170.5C 116.788,172.107 113.288,174.107 110,176.5C 108.691,178.976 106.858,180.976 104.5,182.5C 105.661,184.224 105.495,185.89 104,187.5C 99.1996,193.302 94.033,198.802 88.5,204C 88.6158,205.268 88.9491,206.602 89.5,208C 85.401,211.519 80.7343,212.686 75.5,211.5C 77.8895,206.936 80.8895,202.769 84.5,199C 83.6721,198.085 82.6721,197.419 81.5,197C 82.9362,194.357 85.1028,192.523 88,191.5C 88.3057,189.094 89.139,186.927 90.5,185C 89.7282,183.779 88.7282,182.779 87.5,182C 88.8333,181 90.1667,180 91.5,179C 90.8333,178.333 90.1667,177.667 89.5,177C 93.7057,172.263 98.7057,168.596 104.5,166C 105.38,164.644 105.714,163.144 105.5,161.5C 107.288,161.785 108.955,161.452 110.5,160.5C 107.972,159.184 107.972,158.017 110.5,157C 112.473,156.505 114.473,156.338 116.5,156.5C 116.263,155.209 116.596,154.209 117.5,153.5 Z"/></g>
<g><path style="opacity:1" fill="#000000" d="M 117.5,153.5 C 120.247,151.975 123.247,150.975 126.5,150.5C 126.833,150 127.167,149.5 127.5,149C 126.728,147.779 125.728,146.779 124.5,146C 133.159,146.176 139.492,142.509 143.5,135C 148.489,133.808 153.155,131.975 157.5,129.5C 158.005,125.988 160.005,123.655 163.5,122.5C 164.386,121.675 164.719,120.675 164.5,119.5C 166.75,119.181 168.75,119.681 170.5,121C 169.207,121.49 167.873,121.657 166.5,121.5C 166.5,122.833 166.5,124.167 166.5,125.5C 168.604,125.201 170.604,125.534 172.5,126.5C 167.943,127.892 163.277,128.892 158.5,129.5C 157.985,131.225 157.318,132.892 156.5,134.5C 151.91,136.762 147.91,139.762 144.5,143.5C 142.929,144.309 141.262,144.643 139.5,144.5C 139.5,145.833 139.5,147.167 139.5,148.5C 140.675,148.281 141.675,148.614 142.5,149.5C 140.234,150.314 137.9,150.814 135.5,151C 134.167,152.333 134.167,153.667 135.5,155C 132.167,156.333 128.833,157.667 125.5,159C 125.207,162.094 123.541,163.594 120.5,163.5C 120.246,166.014 119.413,168.348 118,170.5C 110.258,173.357 105.258,178.69 103,186.5C 98.3799,191.957 93.5466,197.29 88.5,202.5C 87.6922,204.423 87.1922,206.423 87,208.5C 84.0127,210.228 80.846,211.061 77.5,211C 79.9126,206.845 82.5793,202.845 85.5,199C 85.2409,197.739 84.5742,196.739 83.5,196C 85.2487,194.708 87.082,193.542 89,192.5C 89.4577,189.819 90.291,187.319 91.5,185C 91.2451,183.674 90.5784,182.674 89.5,182C 92.3463,181.121 93.013,179.454 91.5,177C 95.3909,172.627 100.058,169.294 105.5,167C 106.38,165.644 106.714,164.144 106.5,162.5C 108.167,162.5 109.833,162.5 111.5,162.5C 111.5,160.833 111.5,159.167 111.5,157.5C 113.5,157.5 115.5,157.5 117.5,157.5C 117.5,156.167 117.5,154.833 117.5,153.5 Z"/></g>
<g><path style="opacity:1" fill="#1f0b00" d="M 202.5,119.5 C 205.505,119.253 208.005,120.253 210,122.5C 213.866,128.898 217.199,135.565 220,142.5C 221.101,144.394 222.434,145.061 224,144.5C 225.316,149.298 227.483,153.631 230.5,157.5C 229.422,165.451 229.422,172.951 230.5,180C 229.333,183.167 227.833,183.333 226,180.5C 224.956,178.285 224.29,175.952 224,173.5C 223.558,175.679 222.558,176.345 221,175.5C 219.642,167.407 217.976,159.407 216,151.5C 211.318,142.136 206.651,132.802 202,123.5C 201.421,122.072 201.588,120.738 202.5,119.5 Z"/></g>
<g><path style="opacity:1" fill="#000000" d="M 203.5,120.5 C 205.679,120.84 207.512,121.84 209,123.5C 212.866,129.898 216.199,136.565 219,143.5C 220.307,144.772 221.807,145.772 223.5,146.5C 225.118,151.56 227.118,156.394 229.5,161C 229.014,167.318 228.514,173.818 228,180.5C 225.977,178.231 225.144,175.564 225.5,172.5C 223.876,172.36 222.71,173.027 222,174.5C 220.642,166.407 218.976,158.407 217,150.5C 212.279,140.891 207.446,131.391 202.5,122C 203.056,121.617 203.389,121.117 203.5,120.5 Z"/></g>
<g><path style="opacity:1" fill="#fc5b00" d="M 259.5,123.5 C 266.58,127.735 272.747,132.735 278,138.5C 271.731,136.534 266.065,133.534 261,129.5C 260.495,127.482 259.995,125.482 259.5,123.5 Z"/></g>
<g><path style="opacity:1" fill="#1f0a00" d="M 172.5,146.5 C 172.56,145.957 172.893,145.624 173.5,145.5C 175.22,146.934 177.22,147.767 179.5,148C 181.303,148.637 182.636,149.803 183.5,151.5C 184.216,150.689 185.05,150.022 186,149.5C 188.982,151.042 192.149,152.209 195.5,153C 198.708,157.247 201.542,161.747 204,166.5C 206.788,176.404 204.955,177.57 198.5,170C 192.927,168.543 187.594,166.543 182.5,164C 173.531,162.545 164.531,162.545 155.5,164C 153.5,166.667 151.167,169 148.5,171C 145.494,171.332 142.66,172.166 140,173.5C 139.689,174.742 140.189,175.742 141.5,176.5C 138.92,179.753 136.087,182.753 133,185.5C 132.517,186.448 132.351,187.448 132.5,188.5C 129.813,188.664 127.146,188.497 124.5,188C 130.82,181.52 129.82,179.52 121.5,182C 120.5,182.5 119.5,183 118.5,183.5C 115.994,191.336 110.66,196.003 102.5,197.5C 102.491,195.692 102.991,194.025 104,192.5C 106.185,191.072 108.185,189.405 110,187.5C 110.233,185.22 111.066,183.22 112.5,181.5C 116.993,179.421 121.326,177.088 125.5,174.5C 126.096,173.284 126.263,171.951 126,170.5C 127.734,169.751 129.567,169.251 131.5,169C 130.167,168 130.167,167 131.5,166C 133.9,165.814 136.234,165.314 138.5,164.5C 137.167,163.833 135.833,163.167 134.5,162.5C 140.298,161.467 145.965,159.967 151.5,158C 151.167,157.667 150.833,157.333 150.5,157C 153.167,156.667 155.833,156.333 158.5,156C 157.448,154.284 158.114,153.284 160.5,153C 159.5,152.167 158.5,151.333 157.5,150.5C 158.333,150.167 159.167,149.833 160,149.5C 163.573,151.534 167.406,152.868 171.5,153.5C 171.786,151.723 172.453,150.056 173.5,148.5C 173.457,147.584 173.124,146.917 172.5,146.5 Z"/></g>
<g><path style="opacity:1" fill="#000000" d="M 174.5,148.5 C 178.137,148.487 181.137,149.82 183.5,152.5C 184.647,152.182 185.481,151.516 186,150.5C 188.557,152.189 191.391,153.356 194.5,154C 197.708,158.247 200.542,162.747 203,167.5C 205.456,174.993 204.289,175.493 199.5,169C 193.927,167.543 188.594,165.543 183.5,163C 173.854,161.411 164.188,161.411 154.5,163C 152.5,165.667 150.167,168 147.5,170C 144.494,170.332 141.66,171.166 139,172.5C 138.332,177.538 135.999,181.538 132,184.5C 131.517,185.448 131.351,186.448 131.5,187.5C 130.127,187.657 128.793,187.49 127.5,187C 128.867,184.699 129.534,182.199 129.5,179.5C 125.303,179.739 121.303,180.739 117.5,182.5C 115.431,186.089 113.098,189.589 110.5,193C 108.523,194.541 106.523,195.041 104.5,194.5C 106.53,192.393 108.697,190.393 111,188.5C 111.233,186.22 112.066,184.22 113.5,182.5C 117.993,180.421 122.326,178.088 126.5,175.5C 127.452,173.955 127.785,172.288 127.5,170.5C 129.167,170.5 130.833,170.5 132.5,170.5C 132.5,169.167 132.5,167.833 132.5,166.5C 134.833,166.5 137.167,166.5 139.5,166.5C 139.5,165.167 139.5,163.833 139.5,162.5C 146.107,160.515 152.773,158.848 159.5,157.5C 160.044,155.42 160.878,153.42 162,151.5C 165.078,153.931 168.578,154.931 172.5,154.5C 173.167,152.5 173.833,150.5 174.5,148.5 Z"/></g>
<g><path style="opacity:1" fill="#fc5b00" d="M 74.5,161.5 C 75.9778,161.238 77.3112,161.571 78.5,162.5C 77.8333,162.833 77.1667,163.167 76.5,163.5C 75.2867,163.253 74.62,162.586 74.5,161.5 Z"/></g>
<g><path style="opacity:1" fill="#1f0b00" d="M 261.5,274.5 C 259.03,269.561 256.53,264.561 254,259.5C 252.292,257.457 250.292,255.79 248,254.5C 246.611,250.056 244.944,245.723 243,241.5C 239.045,235.877 234.712,230.543 230,225.5C 229.517,224.552 229.351,223.552 229.5,222.5C 228.5,222.5 227.5,222.5 226.5,222.5C 226.218,219.395 225.218,216.562 223.5,214C 224.074,210.311 224.741,206.644 225.5,203C 222.447,196.513 219.781,189.846 217.5,183C 217.844,181.635 218.511,180.468 219.5,179.5C 217.376,173.866 213.876,169.199 209,165.5C 209.162,170.455 209.495,175.455 210,180.5C 214.144,184.872 215.311,189.705 213.5,195C 214.483,197.93 215.149,200.93 215.5,204C 214.455,206.77 213.788,209.603 213.5,212.5C 212.178,212.67 211.011,212.337 210,211.5C 206.326,204.144 203.66,196.477 202,188.5C 197.726,184.226 192.893,180.726 187.5,178C 181.833,177.333 176.167,177.333 170.5,178C 161.232,181.094 151.899,183.761 142.5,186C 150.713,189.936 156.547,196.103 160,204.5C 168.869,215.645 179.702,217.811 192.5,211C 195.167,210.333 197.833,210.333 200.5,211C 202.269,213.057 204.269,214.89 206.5,216.5C 207.429,217.689 207.762,219.022 207.5,220.5C 205.488,219.986 203.488,219.82 201.5,220C 203.981,221.804 203.981,223.304 201.5,224.5C 201.611,223.883 201.944,223.383 202.5,223C 200.671,221.887 199.837,220.387 200,218.5C 202.314,218.264 204.48,218.264 206.5,218.5C 203.99,216.489 201.657,214.322 199.5,212C 197.5,211.333 195.5,211.333 193.5,212C 189.396,213.701 185.229,215.201 181,216.5C 177.606,215.34 174.273,215.34 171,216.5C 166.986,213.005 162.986,209.339 159,205.5C 155.382,196.715 149.215,190.381 140.5,186.5C 140.977,185.522 141.643,184.689 142.5,184C 151.763,182.624 160.763,180.291 169.5,177C 175.833,176.333 182.167,176.333 188.5,177C 193.893,179.726 198.726,183.226 203,187.5C 204.849,193.083 206.516,198.75 208,204.5C 209.08,206.996 210.414,209.33 212,211.5C 212.496,209.965 212.33,208.465 211.5,207C 212.01,205.174 212.844,205.007 214,206.5C 214.241,202.61 213.741,198.777 212.5,195C 212.755,193.674 213.422,192.674 214.5,192C 213.421,188.089 211.588,184.589 209,181.5C 208.665,176.481 208.165,171.481 207.5,166.5C 207.833,165.5 208.167,164.5 208.5,163.5C 214.748,167.742 219.081,173.409 221.5,180.5C 220.675,181.386 219.675,181.719 218.5,181.5C 220.51,188.029 223.01,194.363 226,200.5C 225.865,203.754 226.031,206.92 226.5,210C 223.689,212.738 223.856,215.238 227,217.5C 227.49,218.793 227.657,220.127 227.5,221.5C 228.5,221.5 229.5,221.5 230.5,221.5C 230.351,222.552 230.517,223.552 231,224.5C 235.712,229.543 240.045,234.877 244,240.5C 245.944,244.723 247.611,249.056 249,253.5C 251.292,254.79 253.292,256.457 255,258.5C 257.628,263.59 260.128,268.757 262.5,274C 262.272,274.399 261.938,274.565 261.5,274.5 Z"/></g>
<g><path style="opacity:1" fill="#fc5b00" d="M 74.5,165.5 C 82.0534,165.369 82.0534,166.702 74.5,169.5C 73.2054,168.902 71.8721,168.402 70.5,168C 71.8584,167.066 73.1917,166.232 74.5,165.5 Z"/></g>
<g><path style="opacity:1" fill="#000000" d="M 261.5,274.5 C 261.5,275.833 261.5,277.167 261.5,278.5C 260.833,278.5 260.5,278.833 260.5,279.5C 258.83,279.249 257.33,278.582 256,277.5C 252.602,272.277 249.436,266.944 246.5,261.5C 241.79,259.49 238.456,256.157 236.5,251.5C 233.165,250.452 231.665,248.118 232,244.5C 231,244.5 230,244.5 229,244.5C 227.156,239.173 224.323,234.506 220.5,230.5C 219.28,231.711 218.113,231.711 217,230.5C 217,227.833 217,225.167 217,222.5C 215.374,225.128 213.374,227.461 211,229.5C 210.077,228.241 209.243,226.908 208.5,225.5C 206.37,226.467 204.37,227.634 202.5,229C 200.934,229.765 199.601,229.598 198.5,228.5C 199.5,227.167 200.5,225.833 201.5,224.5C 203.981,223.304 203.981,221.804 201.5,220C 203.488,219.82 205.488,219.986 207.5,220.5C 207.762,219.022 207.429,217.689 206.5,216.5C 204.269,214.89 202.269,213.057 200.5,211C 197.833,210.333 195.167,210.333 192.5,211C 179.702,217.811 168.869,215.645 160,204.5C 156.547,196.103 150.713,189.936 142.5,186C 151.899,183.761 161.232,181.094 170.5,178C 176.167,177.333 181.833,177.333 187.5,178C 192.893,180.726 197.726,184.226 202,188.5C 203.66,196.477 206.326,204.144 210,211.5C 211.011,212.337 212.178,212.67 213.5,212.5C 213.788,209.603 214.455,206.77 215.5,204C 215.149,200.93 214.483,197.93 213.5,195C 215.311,189.705 214.144,184.872 210,180.5C 209.495,175.455 209.162,170.455 209,165.5C 213.876,169.199 217.376,173.866 219.5,179.5C 218.511,180.468 217.844,181.635 217.5,183C 219.781,189.846 222.447,196.513 225.5,203C 224.741,206.644 224.074,210.311 223.5,214C 225.218,216.562 226.218,219.395 226.5,222.5C 227.5,222.5 228.5,222.5 229.5,222.5C 229.351,223.552 229.517,224.552 230,225.5C 234.712,230.543 239.045,235.877 243,241.5C 244.944,245.723 246.611,250.056 248,254.5C 250.292,255.79 252.292,257.457 254,259.5C 256.53,264.561 259.03,269.561 261.5,274.5 Z"/></g>
<g><path style="opacity:1" fill="#fc5b00" d="M 290.5,173.5 C 292.63,174.032 294.63,174.865 296.5,176C 295.663,177.011 295.33,178.178 295.5,179.5C 296.675,179.281 297.675,179.614 298.5,180.5C 297.289,181.874 296.289,183.374 295.5,185C 296.509,186.168 297.509,187.335 298.5,188.5C 292.306,189.96 290.973,193.293 294.5,198.5C 293.594,200.747 292.261,202.747 290.5,204.5C 290.977,205.478 291.643,206.311 292.5,207C 290.003,207.412 288.003,208.578 286.5,210.5C 287.376,211.251 288.376,211.751 289.5,212C 288.383,213.892 286.716,214.725 284.5,214.5C 284.5,215.5 284.5,216.5 284.5,217.5C 282.876,217.36 281.71,218.027 281,219.5C 278.672,216.687 275.839,214.521 272.5,213C 281.071,210.257 286.405,204.424 288.5,195.5C 285.435,187.712 286.102,180.378 290.5,173.5 Z"/></g>
<g><path style="opacity:1" fill="#5e462b" d="M 279.5,178.5 C 280.5,178.5 281.5,178.5 282.5,178.5C 284.207,185.353 283.707,192.02 281,198.5C 280.438,196.134 280.604,193.801 281.5,191.5C 280.314,187.239 279.647,182.906 279.5,178.5 Z"/></g>
<g><path style="opacity:1" fill="#fefffe" d="M 273.5,186.5 C 271.027,186.912 269.694,185.912 269.5,183.5C 269.965,180.527 271.632,179.36 274.5,180C 275.856,182.414 275.522,184.581 273.5,186.5 Z"/></g>
<g><path style="opacity:1" fill="#5e462b" d="M 269.5,183.5 C 269.694,185.912 271.027,186.912 273.5,186.5C 272.018,190.764 271.185,195.098 271,199.5C 273.808,200.92 276.642,201.42 279.5,201C 274.067,207.634 270.233,206.801 268,198.5C 267.192,193.241 267.692,188.241 269.5,183.5 Z"/></g>
<g><path style="opacity:1" fill="#5e462b" d="M 170.5,186.5 C 168.977,188.586 169.31,190.252 171.5,191.5C 172.283,197.309 174.283,202.642 177.5,207.5C 182.92,209.042 187.086,207.376 190,202.5C 189.998,197.144 189.498,191.811 188.5,186.5C 190.722,186.178 192.556,186.845 194,188.5C 195.299,191.147 196.632,193.814 198,196.5C 198.814,198.902 198.647,201.235 197.5,203.5C 195.5,204.833 193.833,206.5 192.5,208.5C 187.202,209.405 182.202,211.071 177.5,213.5C 173.249,210.756 169.415,207.422 166,203.5C 163.035,198.008 161.869,192.341 162.5,186.5C 165.167,186.5 167.833,186.5 170.5,186.5 Z"/></g>
<g><path style="opacity:1" fill="#fefffe" d="M 170.5,186.5 C 172.527,186.338 174.527,186.505 176.5,187C 177.833,188.333 177.833,189.667 176.5,191C 174.866,191.494 173.199,191.66 171.5,191.5C 169.31,190.252 168.977,188.586 170.5,186.5 Z"/></g>
<g><path style="opacity:1" fill="#200b00" d="M 193.5,227.5 C 191.236,228.581 189.069,229.915 187,231.5C 186.071,236.716 182.905,239.049 177.5,238.5C 177.657,237.127 177.49,235.793 177,234.5C 176.535,235.931 175.701,237.097 174.5,238C 171.408,239.121 168.408,240.287 165.5,241.5C 165.247,239.173 165.914,237.173 167.5,235.5C 166.767,234.913 165.767,234.913 164.5,235.5C 163.833,235.5 163.167,235.5 162.5,235.5C 161.5,235.5 160.5,235.5 159.5,235.5C 159.666,231.311 157.999,227.978 154.5,225.5C 152.754,227.854 150.421,228.854 147.5,228.5C 147.542,225.601 148.042,222.935 149,220.5C 147.262,218.378 145.428,218.545 143.5,221C 138.072,221.589 135.739,219.089 136.5,213.5C 134.5,213.5 132.5,213.5 130.5,213.5C 131.758,210.306 132.424,206.973 132.5,203.5C 130.5,203.5 128.5,203.5 126.5,203.5C 126.33,202.178 126.663,201.011 127.5,200C 123.538,198.789 122.871,196.789 125.5,194C 125,193.833 124.5,193.667 124,193.5C 118.109,195.862 112.275,198.362 106.5,201C 107.574,201.739 108.241,202.739 108.5,204C 107.224,206.281 105.557,208.281 103.5,210C 106.112,209.641 108.779,209.141 111.5,208.5C 111.762,209.978 111.429,211.311 110.5,212.5C 108.739,213.035 107.406,214.035 106.5,215.5C 104.898,217.074 102.898,217.741 100.5,217.5C 92.0521,218.944 85.0521,222.944 79.5,229.5C 81.5978,225.566 84.5978,222.4 88.5,220C 96.4519,218.189 103.785,215.022 110.5,210.5C 110.333,210.167 110.167,209.833 110,209.5C 98.2784,214.226 97.4451,212.393 107.5,204C 104.526,202.494 104.193,200.828 106.5,199C 113.657,196.282 120.824,193.782 128,191.5C 129.167,191.667 130.333,191.833 131.5,192C 129.167,193.5 126.833,195 124.5,196.5C 125.438,197.553 126.605,198.22 128,198.5C 129.412,197.077 130.579,197.244 131.5,199C 126.217,201.9 126.884,203.234 133.5,203C 133.957,203.414 134.291,203.914 134.5,204.5C 133.167,205.5 133.167,206.5 134.5,207.5C 133.376,208.914 132.376,210.414 131.5,212C 133.833,212.333 136.167,212.667 138.5,213C 138.056,214.533 137.723,216.033 137.5,217.5C 138.833,218.5 140.167,219.5 141.5,220.5C 145.652,216.057 148.985,216.557 151.5,222C 148.945,223.258 148.278,225.091 149.5,227.5C 150.981,226.52 152.315,225.353 153.5,224C 154.167,223.333 154.833,223.333 155.5,224C 156.976,226.643 158.976,228.81 161.5,230.5C 160.572,231.768 160.405,233.101 161,234.5C 162.791,232.487 164.125,232.487 165,234.5C 166.402,232.027 167.902,232.027 169.5,234.5C 168.752,236.332 167.752,237.999 166.5,239.5C 166.833,239.833 167.167,240.167 167.5,240.5C 168.382,239.24 169.382,238.074 170.5,237C 171.449,236.383 172.282,236.549 173,237.5C 174.87,235.595 176.37,233.428 177.5,231C 178.448,230.517 179.448,230.351 180.5,230.5C 179.937,232.91 179.437,235.243 179,237.5C 180,236.5 181,235.5 182,234.5C 182.333,235.167 182.667,235.833 183,236.5C 184.711,234.044 186.044,231.377 187,228.5C 187.333,228.833 187.667,229.167 188,229.5C 189.41,226.864 191.243,226.197 193.5,227.5 Z"/></g>
<g><path style="opacity:1" fill="#000000" d="M 162.5,235.5 C 158.698,240.914 153.365,244.081 146.5,245C 145.315,246.353 143.981,247.52 142.5,248.5C 140.524,243.66 141.19,238.993 144.5,234.5C 142.833,233.333 141.167,232.167 139.5,231C 140.71,229.961 141.71,228.794 142.5,227.5C 139.101,229.388 136.101,231.888 133.5,235C 132.128,235.402 130.795,235.902 129.5,236.5C 128.961,233.798 127.628,231.631 125.5,230C 127.07,228.298 126.737,227.465 124.5,227.5C 123.353,227.818 122.519,228.484 122,229.5C 120.513,227.728 120.18,225.728 121,223.5C 122.892,221.946 124.392,220.112 125.5,218C 124.045,215.752 123.212,213.252 123,210.5C 117.628,212.603 112.128,214.27 106.5,215.5C 107.406,214.035 108.739,213.035 110.5,212.5C 111.429,211.311 111.762,209.978 111.5,208.5C 108.779,209.141 106.112,209.641 103.5,210C 105.557,208.281 107.224,206.281 108.5,204C 108.241,202.739 107.574,201.739 106.5,201C 112.275,198.362 118.109,195.862 124,193.5C 124.5,193.667 125,193.833 125.5,194C 122.871,196.789 123.538,198.789 127.5,200C 126.663,201.011 126.33,202.178 126.5,203.5C 128.5,203.5 130.5,203.5 132.5,203.5C 132.424,206.973 131.758,210.306 130.5,213.5C 132.5,213.5 134.5,213.5 136.5,213.5C 135.739,219.089 138.072,221.589 143.5,221C 145.428,218.545 147.262,218.378 149,220.5C 148.042,222.935 147.542,225.601 147.5,228.5C 150.421,228.854 152.754,227.854 154.5,225.5C 157.999,227.978 159.666,231.311 159.5,235.5C 160.5,235.5 161.5,235.5 162.5,235.5 Z"/></g>
<g><path style="opacity:1" fill="#fefefe" d="M 142.5,227.5 C 141.71,228.794 140.71,229.961 139.5,231C 141.167,232.167 142.833,233.333 144.5,234.5C 141.19,238.993 140.524,243.66 142.5,248.5C 143.981,247.52 145.315,246.353 146.5,245C 153.365,244.081 158.698,240.914 162.5,235.5C 163.167,235.5 163.833,235.5 164.5,235.5C 161.354,239.477 157.688,242.977 153.5,246C 154.678,246.967 156.011,247.467 157.5,247.5C 156.41,248.609 156.41,249.609 157.5,250.5C 159.078,249.36 160.744,248.86 162.5,249C 160.789,250.133 160.289,251.633 161,253.5C 163.586,251.455 166.42,249.789 169.5,248.5C 169.833,249.167 170.167,249.833 170.5,250.5C 173.47,249.363 175.636,247.363 177,244.5C 176.917,247.119 176.75,249.786 176.5,252.5C 179.937,251.866 183.104,250.533 186,248.5C 190.002,242.165 193.169,235.498 195.5,228.5C 196.5,228.5 197.5,228.5 198.5,228.5C 199.601,229.598 200.934,229.765 202.5,229C 204.37,227.634 206.37,226.467 208.5,225.5C 209.243,226.908 210.077,228.241 211,229.5C 213.374,227.461 215.374,225.128 217,222.5C 217,225.167 217,227.833 217,230.5C 218.113,231.711 219.28,231.711 220.5,230.5C 224.323,234.506 227.156,239.173 229,244.5C 230,244.5 231,244.5 232,244.5C 231.665,248.118 233.165,250.452 236.5,251.5C 238.456,256.157 241.79,259.49 246.5,261.5C 249.436,266.944 252.602,272.277 256,277.5C 257.33,278.582 258.83,279.249 260.5,279.5C 263.03,282.688 265.696,285.855 268.5,289C 269.448,289.483 270.448,289.649 271.5,289.5C 265.851,297.471 266.518,304.971 273.5,312C 277.833,315 282.167,318 286.5,321C 293.89,321.273 301.223,320.773 308.5,319.5C 308.833,319.833 309.167,320.167 309.5,320.5C 304.999,324.161 300.332,327.661 295.5,331C 290.809,331.65 286.143,331.483 281.5,330.5C 279.246,330.931 277.079,331.597 275,332.5C 270.52,331.438 266.02,331.438 261.5,332.5C 255.738,331.81 250.071,330.643 244.5,329C 236.884,323.017 229.884,316.35 223.5,309C 213.826,301.651 204.493,293.985 195.5,286C 190.496,284.024 185.329,282.524 180,281.5C 176.969,281.931 174.469,283.264 172.5,285.5C 172.977,286.478 173.643,287.311 174.5,288C 185.229,291.528 194.895,296.862 203.5,304C 213.595,315.43 224.928,325.43 237.5,334C 229.746,334.542 222.079,333.876 214.5,332C 211.833,330.667 209.833,328.667 208.5,326C 188.718,314.868 170.051,302.201 152.5,288C 151.181,285.715 149.681,283.548 148,281.5C 143.302,284.606 142.468,283.773 145.5,279C 145.333,278.5 145.167,278 145,277.5C 144.107,278.711 143.274,278.711 142.5,277.5C 144.123,275.887 145.29,274.22 146,272.5C 143.355,274.415 140.521,275.582 137.5,276C 138.5,275 139.5,274 140.5,273C 136.5,273 132.5,273 128.5,273C 130.683,270.65 133.016,268.483 135.5,266.5C 133.587,265.949 131.587,265.782 129.5,266C 130.524,264.633 130.024,263.8 128,263.5C 122.076,264.415 116.409,266.082 111,268.5C 110.911,266.887 111.745,265.72 113.5,265C 110.132,264.949 106.798,265.449 103.5,266.5C 100.039,265.215 99.5392,263.215 102,260.5C 103.972,259.695 105.472,258.361 106.5,256.5C 105.726,255.289 104.893,255.289 104,256.5C 102.333,254.372 100.166,253.039 97.5,252.5C 98.2135,250.189 99.2135,248.022 100.5,246C 97.1031,246.994 93.7698,246.66 90.5,245C 93.0547,241.428 96.388,239.095 100.5,238C 99.2842,236.26 97.6175,235.26 95.5,235C 99.2366,230.631 103.57,226.965 108.5,224C 106.5,224 104.5,224 102.5,224C 114.953,216.805 114.453,215.305 101,219.5C 100.536,218.906 100.369,218.239 100.5,217.5C 102.898,217.741 104.898,217.074 106.5,215.5C 112.128,214.27 117.628,212.603 123,210.5C 123.212,213.252 124.045,215.752 125.5,218C 124.392,220.112 122.892,221.946 121,223.5C 120.18,225.728 120.513,227.728 122,229.5C 122.519,228.484 123.353,227.818 124.5,227.5C 126.737,227.465 127.07,228.298 125.5,230C 127.628,231.631 128.961,233.798 129.5,236.5C 130.795,235.902 132.128,235.402 133.5,235C 136.101,231.888 139.101,229.388 142.5,227.5 Z"/></g>
<g><path style="opacity:1" fill="#fefffe" d="M 142.5,227.5 C 143.314,225.727 144.648,225.227 146.5,226C 145.255,226.791 143.922,227.291 142.5,227.5 Z"/></g>
<g><path style="opacity:1" fill="#010101" d="M 193.5,227.5 C 194.167,227.833 194.833,228.167 195.5,228.5C 193.169,235.498 190.002,242.165 186,248.5C 183.104,250.533 179.937,251.866 176.5,252.5C 176.75,249.786 176.917,247.119 177,244.5C 175.636,247.363 173.47,249.363 170.5,250.5C 170.167,249.833 169.833,249.167 169.5,248.5C 166.42,249.789 163.586,251.455 161,253.5C 160.289,251.633 160.789,250.133 162.5,249C 160.744,248.86 159.078,249.36 157.5,250.5C 156.41,249.609 156.41,248.609 157.5,247.5C 156.011,247.467 154.678,246.967 153.5,246C 157.688,242.977 161.354,239.477 164.5,235.5C 165.767,234.913 166.767,234.913 167.5,235.5C 165.914,237.173 165.247,239.173 165.5,241.5C 168.408,240.287 171.408,239.121 174.5,238C 175.701,237.097 176.535,235.931 177,234.5C 177.49,235.793 177.657,237.127 177.5,238.5C 182.905,239.049 186.071,236.716 187,231.5C 189.069,229.915 191.236,228.581 193.5,227.5 Z"/></g>
<g><path style="opacity:1" fill="#fdc09c" d="M 260.5,279.5 C 260.5,278.833 260.833,278.5 261.5,278.5C 264.03,281.688 266.696,284.855 269.5,288C 270.094,288.464 270.761,288.631 271.5,288.5C 271.5,288.833 271.5,289.167 271.5,289.5C 270.448,289.649 269.448,289.483 268.5,289C 265.696,285.855 263.03,282.688 260.5,279.5 Z"/></g>
<g><path style="opacity:1" fill="#fefffe" d="M 292.5,295.5 C 296.484,295.719 300.318,295.719 304,295.5C 304.5,296 305,296.5 305.5,297C 300.833,297.667 296.167,297.667 291.5,297C 292.056,296.617 292.389,296.117 292.5,295.5 Z"/></g>
<g><path style="opacity:1" fill="#fefffe" d="M 312.5,301.5 C 313.873,301.343 315.207,301.51 316.5,302C 314.13,303.902 311.464,304.569 308.5,304C 310.066,303.392 311.4,302.558 312.5,301.5 Z"/></g>
<g><path style="opacity:1" fill="#fefffe" d="M 280.5,306.5 C 284.937,304.728 288.937,305.561 292.5,309C 288.534,308.281 284.534,307.448 280.5,306.5 Z"/></g>
<g><path style="opacity:1" fill="#1f0000" d="M 278.5,335.5 C 282.44,335.758 286.107,336.924 289.5,339C 293.152,339.499 296.818,339.665 300.5,339.5C 299.68,347.824 296.347,354.991 290.5,361C 275.622,365.394 265.288,360.394 259.5,346C 263.994,339.173 269.994,337.673 277.5,341.5C 279.117,344.784 281.45,347.451 284.5,349.5C 284.918,344.999 283.085,341.333 279,338.5C 278.517,337.552 278.351,336.552 278.5,335.5 Z"/></g>
<g><path style="opacity:1" fill="#fe0000" d="M 279.5,337.5 C 279.56,336.957 279.893,336.624 280.5,336.5C 286.522,340.091 292.856,341.591 299.5,341C 297.798,349.074 293.798,355.741 287.5,361C 278.961,363.2 271.795,361.033 266,354.5C 264.789,351.241 262.956,348.408 260.5,346C 263.564,342.317 267.231,340.484 271.5,340.5C 273.225,341.015 274.892,341.682 276.5,342.5C 278.425,347.107 281.758,349.773 286.5,350.5C 286.542,344.919 284.209,340.586 279.5,337.5 Z"/></g>
</svg>
