<svg xmlns="http://www.w3.org/2000/svg" width="365" height="365" style="shape-rendering:geometricPrecision;text-rendering:geometricPrecision;image-rendering:optimizeQuality;fill-rule:evenodd;clip-rule:evenodd"><path style="opacity:1" d="M-.5-.5h365v365H-.5V-.5Z"/><path style="opacity:1" fill="#200b00" d="M151.5 95.5v-1h3a32.462 32.462 0 0 0-.5-8 167.99 167.99 0 0 0-6-13 616.784 616.784 0 0 0-26-33A267.693 267.693 0 0 1 94.5 13a80.885 80.885 0 0 0-20-1.5c6.807-1.965 13.807-1.798 21 .5A267.693 267.693 0 0 0 123 39.5a616.784 616.784 0 0 1 26 33 581.304 581.304 0 0 1 7.5 17 11.987 11.987 0 0 0-1 6h-3a689.997 689.997 0 0 1-2 7c-.063 1.981.604 3.648 2 5 5.864-3.219 7.531-8.052 5-14.5 1.373-1.479 2.873-1.312 4.5.5l.5-2c-2.893-5.273-4.727-10.94-5.5-17-17.041-23.71-36.874-44.877-59.5-63.5a748.202 748.202 0 0 0-11-5c-3.327-.535-6.494-.035-9.5 1.5-.399-.228-.565-.562-.5-1 3.385-1.745 7.052-2.245 11-1.5 3.64 1.62 7.307 3.286 11 5 22.626 18.623 42.459 39.79 59.5 63.5.67 5.381 2.337 10.381 5 15 .495 1.973.662 3.973.5 6-1.322.17-2.489-.163-3.5-1l-1 10c-1.973 3.533-4.806 4.866-8.5 4-1.472-4.21-1.138-8.21 1-12Z"/><path style="opacity:1" fill="#fc5b00" d="M74.5 11.5c-1.358-2.243-.692-3.91 2-5-.065.438.101.772.5 1 3.006-1.535 6.173-2.035 9.5-1.5 3.64 1.62 7.307 3.286 11 5 22.626 18.623 42.459 39.79 59.5 63.5.773 6.06 2.607 11.727 5.5 17l-.5 2c-1.627-1.812-3.127-1.979-4.5-.5 2.531 6.448.864 11.281-5 14.5-1.396-1.352-2.063-3.019-2-5a689.997 689.997 0 0 0 2-7h3a11.987 11.987 0 0 1 1-6 581.304 581.304 0 0 0-7.5-17 616.784 616.784 0 0 0-26-33A267.693 267.693 0 0 1 95.5 12c-7.193-2.298-14.193-2.465-21-.5Z"/><path style="opacity:1" fill="#100d07" d="M305.5 15.5h3a8.43 8.43 0 0 1-.5 4c-4.348.613-5.181 2.446-2.5 5.5 2.935.1 4.269 1.6 4 4.5.207 5.851-1.627 10.851-5.5 15a57.39 57.39 0 0 0 1.5 19l-1.5 6a112.408 112.408 0 0 0-9 15c1.188 7.101-1.146 12.768-7 17-3.014 5.365-6.014 10.699-9 16-.529 2.085-.029 3.918 1.5 5.5a3.943 3.943 0 0 1-1 2c1.537 1.11 2.203 2.61 2 4.5-3.046-.894-6.046-1.061-9-.5-4.852-3.741-5.185-7.741-1-12a8.43 8.43 0 0 0-4-.5 118.01 118.01 0 0 1 4-9.5c-.993-2.453-1.16-4.953-.5-7.5a411.18 411.18 0 0 0 10-21c.667-1.667.667-3.333 0-5l-7 6a180.246 180.246 0 0 0-10 21c-3.147 4.66-7.314 5.993-12.5 4a23.909 23.909 0 0 1 2.5-9c5.14-6.412 8.14-13.746 9-22a46.33 46.33 0 0 1 9-13l-1-7a133.034 133.034 0 0 0 19.5-31c4.468-3.683 9.468-6.017 15-7Z"/><path style="opacity:1" fill="#89653d" d="M306.5 16.5c1.025.397 1.192 1.063.5 2-4.924 1.274-5.757 3.94-2.5 8 .774 1.211 1.607 1.211 2.5 0 1.897 6.35.563 12.017-4 17a55.498 55.498 0 0 0 1.5 20 32.018 32.018 0 0 1-3.5 9 91.04 91.04 0 0 0-7 11c1.208 7.027-1.125 12.694-7 17a305.94 305.94 0 0 0-10.5 19 14.972 14.972 0 0 0 3 3.5l-4 1a14.506 14.506 0 0 1 5 4c-2.2-.584-4.367-.418-6.5.5-5.787-3.99-5.953-8.157-.5-12.5l-1-1.5c-4.588 1.323-4.922.823-1-1.5a3.647 3.647 0 0 1-1-1.5l3-4c-2.469-3.213-2.636-6.547-.5-10A594.825 594.825 0 0 1 283.5 77c-.617-2.758-.784-5.591-.5-8.5-2.667 4-6 7.333-10 10a180.246 180.246 0 0 0-10 21c-2.747 4.491-6.247 5.491-10.5 3 4.238-7.995 8.238-16.495 12-25.5a3.647 3.647 0 0 1-1-1.5 53 53 0 0 1 9.5-14c.896-2.525.396-4.692-1.5-6.5 5.138-7.145 10.304-14.312 15.5-21.5a20.512 20.512 0 0 0 3-8c4.476-4.986 9.976-7.986 16.5-9Z"/><path style="opacity:1" fill="#fa5b03" d="M70.5 19.5c1.878 1.374 2.878 3.374 3 6a162.203 162.203 0 0 0-5.5 21L66.5 39a67.722 67.722 0 0 0 4-19.5Z"/><path style="opacity:1" fill="#100c07" d="M151.5 94.5v1c-1.89.204-3.39-.463-4.5-2-.147 2.61-.981 4.944-2.5 7 1.751 3.355.917 5.688-2.5 7a23.226 23.226 0 0 1-9-3l-1-3c-6.124-3.646-8.124-8.98-6-16a23.609 23.609 0 0 1 2.5-6c-1.53-2.298-1.196-4.13 1-5.5L118 62.5a340.622 340.622 0 0 0-3.5-11c-3.952-5.374-9.119-9.04-15.5-11-2.163-.005-3.663.995-4.5 3 4.253.751 8.253 2.084 12 4 .744 3.45-.59 5.116-4 5v3a101.703 101.703 0 0 0-13 4c.835-8.069-.499-8.735-4-2 .77 5.424 2.603 10.424 5.5 15a37.791 37.791 0 0 0 2.5 12 119.553 119.553 0 0 0 8.5 6 53.205 53.205 0 0 0 6 11 28.912 28.912 0 0 1 1.5-4c1.151-1.231 2.317-1.231 3.5 0a160.3 160.3 0 0 1 4.5 17c-3.31.039-5.976-1.294-8-4-1.09.891-1.09 1.891 0 3a160.999 160.999 0 0 0 15 8c4.301-3.4 8.635-3.566 13-.5.88 1.356 1.214 2.856 1 4.5-1.291-.237-2.291.096-3 1-1.419.951-3.085 1.284-5 1 2.117-1.563 4.45-2.896 7-4-1.529-1.688-3.363-3.021-5.5-4-2.879 2.073-6.046 2.907-9.5 2.5l-13-6.5c-2.153-2.429-2.819-5.096-2-8a22.106 22.106 0 0 1 7 5.5c.983.591 1.65.257 2-1a437.476 437.476 0 0 0-5.5-14.5 34.106 34.106 0 0 1-3 6 54.112 54.112 0 0 1-7-12c-3.896-1.856-7.062-4.522-9.5-8a102.988 102.988 0 0 1-1.5-10c-3.538-5.486-5.205-11.486-5-18 1.033-2.533 2.867-4.2 5.5-5 2.3.769 2.468 1.769.5 3-.667 1.667-.667 3.333 0 5 3.146-2.326 6.646-3.659 10.5-4v-3c1.846.278 3.18-.389 4-2-.774-1.211-1.607-1.211-2.5 0a4.934 4.934 0 0 1-.5-3 61.538 61.538 0 0 1-10-2c1.786-4.68 5.119-6.18 10-4.5a22.146 22.146 0 0 0 7 4 76.251 76.251 0 0 0 6 6.5c1.23 3.65 2.396 7.316 3.5 11L130.5 73c6.077 2.38 11.41 6.048 16 11 .832.688 1.498.521 2-.5-2.901-7.069-7.735-12.402-14.5-16-1.465.83-2.965.996-4.5.5a64.78 64.78 0 0 1-8-11 18.083 18.083 0 0 0 2-3.5 248.994 248.994 0 0 0-16-20.5c-4.14-.8-7.14-3.133-9-7A57.003 57.003 0 0 1 87 21.5a20.644 20.644 0 0 0-7 5 431.57 431.57 0 0 0-7.5 28c.245 2.245.245 4.578 0 7a99.129 99.129 0 0 1 6.5 15c.94 6.68 1.94 13.347 3 20 .691 2.766 2.191 3.433 4.5 2 5.026 2.859 8.86 6.859 11.5 12a21.53 21.53 0 0 1 6 5c.563 1.225.23 2.225-1 3a29.86 29.86 0 0 1-7-3c-.75 1.135-.583 2.135.5 3 8.138 6.062 16.972 7.729 26.5 5 2.56.401 4.393 1.734 5.5 4v1a36.13 36.13 0 0 0-5.5-4c-9.934 2.801-19.101 1.134-27.5-5-.952-1.545-1.285-3.212-1-5a32.375 32.375 0 0 0 8 1.5 534.685 534.685 0 0 0-14-14.5 109.545 109.545 0 0 1-6.5-2 136.51 136.51 0 0 1-4-22 152.842 152.842 0 0 0-6-14 62.455 62.455 0 0 1 2-22c2.657-4.975 4.324-10.308 5-16 1.73-2.117 3.898-3.617 6.5-4.5 4.764.699 9.43 2.032 14 4 1.86 3.867 4.86 6.2 9 7A190.707 190.707 0 0 1 123 49.5a10.256 10.256 0 0 1 1.5 4c-.728 1.655-.895 3.321-.5 5l7 9c1.726-1.076 3.559-1.243 5.5-.5a70.56 70.56 0 0 1 10.5 9.5 113.003 113.003 0 0 0 4.5 18Z"/><path style="opacity:1" fill="#89653d" d="M130.5 127.5h-2c-1.107-2.266-2.94-3.599-5.5-4-9.528 2.729-18.362 1.062-26.5-5-1.083-.865-1.25-1.865-.5-3a29.86 29.86 0 0 0 7 3c1.23-.775 1.563-1.775 1-3a21.53 21.53 0 0 0-6-5c-2.64-5.141-6.474-9.141-11.5-12-2.309 1.433-3.809.766-4.5-2-1.06-6.653-2.06-13.32-3-20a99.129 99.129 0 0 0-6.5-15c.245-2.422.245-4.755 0-7a431.57 431.57 0 0 1 7.5-28 20.644 20.644 0 0 1 7-5A57.003 57.003 0 0 0 98.5 26c1.86 3.867 4.86 6.2 9 7a248.994 248.994 0 0 1 16 20.5 18.083 18.083 0 0 1-2 3.5 64.78 64.78 0 0 0 8 11c1.535.496 3.035.33 4.5-.5 6.765 3.598 11.599 8.931 14.5 16-.502 1.021-1.168 1.188-2 .5-4.59-4.952-9.923-8.62-16-11L119 61.5a340.622 340.622 0 0 0-3.5-11 76.251 76.251 0 0 1-6-6.5 22.146 22.146 0 0 1-7-4c-4.881-1.68-8.214-.18-10 4.5a61.538 61.538 0 0 0 10 2 4.934 4.934 0 0 0 .5 3c.893-1.211 1.726-1.211 2.5 0-.82 1.611-2.154 2.278-4 2v3c-3.854.341-7.354 1.674-10.5 4-.667-1.667-.667-3.333 0-5 1.968-1.231 1.8-2.231-.5-3-2.633.8-4.467 2.467-5.5 5-.205 6.514 1.462 12.514 5 18 .337 3.36.837 6.694 1.5 10 2.438 3.478 5.604 6.144 9.5 8a54.112 54.112 0 0 0 7 12 34.106 34.106 0 0 0 3-6 437.476 437.476 0 0 1 5.5 14.5c-.35 1.257-1.017 1.591-2 1a22.106 22.106 0 0 0-7-5.5c-.819 2.904-.153 5.571 2 8l13 6.5c3.454.407 6.621-.427 9.5-2.5 2.137.979 3.971 2.312 5.5 4-2.55 1.104-4.883 2.437-7 4Z"/><path style="opacity:1" fill="#fc5b00" d="M249.5 93.5c-2.088 1.44-4.421 2.106-7 2-.028-2.082.639-3.916 2-5.5-3.531.285-7.031.451-10.5.5a13.908 13.908 0 0 1-4-3 17.077 17.077 0 0 1 3.5-8c-2.765.298-5.265 1.298-7.5 3-.507-1.496-.007-2.663 1.5-3.5-2.169-.43-4.169.07-6 1.5-6.012-1.367-5.679-3.2 1-5.5a24.911 24.911 0 0 0 5-6.5 74.666 74.666 0 0 0 21-9.5 793.5 793.5 0 0 1 24-23.5c2.314-1.977 4.647-3.977 7-6 1.083.865 1.249 1.865.5 3a127.951 127.951 0 0 1-18 20c-4.504 6.009-7.671 12.676-9.5 20l-3 2.5c1.438.219 2.771.719 4 1.5-1.336 5.674-2.67 11.34-4 17Z"/><path style="opacity:1" fill="#1f0a00" d="M272.5 35.5a793.5 793.5 0 0 0-24 23.5 74.666 74.666 0 0 1-21 9.5 24.911 24.911 0 0 1-5 6.5c-6.679 2.3-7.012 4.133-1 5.5 1.831-1.43 3.831-1.93 6-1.5-1.507.837-2.007 2.004-1.5 3.5 2.235-1.702 4.735-2.702 7.5-3a17.077 17.077 0 0 0-3.5 8 13.908 13.908 0 0 0 4 3c3.469-.049 6.969-.215 10.5-.5-1.361 1.584-2.028 3.418-2 5.5 2.579.106 4.912-.56 7-2-.077 1.25-.744 2.083-2 2.5a18.437 18.437 0 0 1-6 .5v-5c-3.172-.428-6.172-.595-9-.5a6.977 6.977 0 0 1-3.5-2.5 59.662 59.662 0 0 0-.5-6 6.846 6.846 0 0 1-4 1 4.934 4.934 0 0 0-.5-3c-2.75.791-5.583.791-8.5 0 .372-3.543 2.372-5.71 6-6.5a24.911 24.911 0 0 0 5-6.5 74.666 74.666 0 0 0 21-9.5c7.602-8.441 15.935-15.941 25-22.5Z"/><path style="opacity:1" fill="#89653d" d="M128.5 76.5c.06-.543.393-.876 1-1 4.457 5.267 7.791 11.1 10 17.5 3.059 2.034 4.725 1.034 5-3-2.744-3.594-1.911-4.76 2.5-3.5 1.665 2.578 2.665 5.245 3 8-1.555-2.015-3.389-2.349-5.5-1a9.107 9.107 0 0 1 1 5c-1.175-.219-2.175.114-3 1 2.71 2.669 2.543 5.002-.5 7a42.733 42.733 0 0 1-7.5-2.5c-.739-3.073-2.572-5.24-5.5-6.5a12.01 12.01 0 0 1-2.5-5.5c.666-1.669.666-3.169 0-4.5.696-3.361 1.696-5.861 3-7.5-.014-1.385-.348-2.551-1-3.5Z"/><path style="opacity:1" fill="#fc5a00" d="M259.5 123.5a71.72 71.72 0 0 1-12.5-6 11.333 11.333 0 0 1-3.5 1.5c3.049 4.716 7.049 8.382 12 11-1.231 1.183-1.231 2.349 0 3.5a76.716 76.716 0 0 0 6 3.5c-1.333 1-1.333 2 0 3a57.884 57.884 0 0 0 11 4c-1.743 1.11-3.076 2.61-4 4.5-2.56-.935-3.226-.101-2 2.5a21.438 21.438 0 0 1-5 0l-2 4a93.24 93.24 0 0 0 3.5 15.5c1.147.958 2.147.625 3-1 1.113-1.26 1.28-2.427.5-3.5 1.244-.456 2.077.044 2.5 1.5a64.735 64.735 0 0 0 6-9c1.113 1.26 1.28 2.427.5 3.5 2.912.245 5.912.245 9 0a7.248 7.248 0 0 0-2 2.5c2.599.531 5.265.698 8 .5l-3 2.5c2.047 1.515 4.381 2.349 7 2.5-.763.944-1.763 1.444-3 1.5a24.128 24.128 0 0 0-11-.5 82.259 82.259 0 0 1-12 3.5c-3.731 8.257-5.898 16.924-6.5 26a10888.41 10888.41 0 0 1-3.5-16c3.028-9.316 1.195-17.65-5.5-25a12.403 12.403 0 0 0-2.5 4 324.314 324.314 0 0 1 2 9.5 12.793 12.793 0 0 1-2 4.5 2227.97 2227.97 0 0 0-5-23.5l1-1a1204.432 1204.432 0 0 0-14.5-29.5c-1.731-2.117-3.898-3.617-6.5-4.5-2.566-6.411-7.233-9.911-14-10.5-1.605 3.924-1.105 7.591 1.5 11 8.578 8.57 15.578 18.236 21 29l6 6a209.799 209.799 0 0 0 14 41l1 10a63.726 63.726 0 0 1 10 9c4.737 7.683 10.904 13.85 18.5 18.5a193.88 193.88 0 0 1 15.5 17.5c4.478 9.626 8.978 19.292 13.5 29-.333 1-1 1.667-2 2a19.06 19.06 0 0 0-7-2.5c-10.471-.72-20.471 1.446-30 6.5.073 1.527-.594 2.527-2 3a2.428 2.428 0 0 1-2-.5 216.717 216.717 0 0 1-8-9.5v-4c.438.065.772-.101 1-.5a332.736 332.736 0 0 0-7.5-15.5 21.53 21.53 0 0 0-6-5 108.37 108.37 0 0 0-5-13 148.791 148.791 0 0 0-13-16 4.934 4.934 0 0 1-.5-3h-3a8.43 8.43 0 0 0-.5-4c-3.144-2.262-3.311-4.762-.5-7.5a49.376 49.376 0 0 1-.5-9.5 131.97 131.97 0 0 1-7.5-19c1.175.219 2.175-.114 3-1-2.419-7.091-6.752-12.758-13-17l-1 3a228.126 228.126 0 0 1 1.5 15 27.58 27.58 0 0 1 5.5 10.5c-1.078.674-1.745 1.674-2 3 1.241 3.777 1.741 7.61 1.5 11.5-1.156-1.493-1.99-1.326-2.5.5.83 1.465.996 2.965.5 4.5a36.16 36.16 0 0 1-4-7 263.524 263.524 0 0 0-5-17 56.289 56.289 0 0 0-14.5-10.5 90.455 90.455 0 0 0-19 0 130.971 130.971 0 0 1-27 7 7.248 7.248 0 0 0-2 2.5c8.715 3.881 14.882 10.215 18.5 19a324.178 324.178 0 0 0 12 11c3.273-1.16 6.606-1.16 10 0a139.966 139.966 0 0 0 12.5-4.5c2-.667 4-.667 6 0a65.066 65.066 0 0 0 7 6.5c-2.02-.236-4.186-.236-6.5 0-.163 1.887.671 3.387 2.5 4.5-.556.383-.889.883-1 1.5l-3 4h-3l-2-1c-2.257-1.303-4.09-.636-5.5 2l-1-1a31.041 31.041 0 0 1-4 8l-1-2-3 3c.437-2.257.937-4.59 1.5-7a4.934 4.934 0 0 0-3 .5 23.162 23.162 0 0 1-4.5 6.5c-.718-.951-1.551-1.117-2.5-.5a23.65 23.65 0 0 0-3 3.5l-1-1a18.924 18.924 0 0 0 3-5c-1.598-2.473-3.098-2.473-4.5 0-.875-2.013-2.209-2.013-4 0-.595-1.399-.428-2.732.5-4a18.68 18.68 0 0 1-6-6.5c-.667-.667-1.333-.667-2 0a19.887 19.887 0 0 1-4 3.5c-1.222-2.409-.555-4.242 2-5.5-2.515-5.443-5.848-5.943-10-1.5l-4-3a35.193 35.193 0 0 1 1-4.5l-7-1a32.367 32.367 0 0 1 3-4.5c-1.333-1-1.333-2 0-3a3.647 3.647 0 0 0-1-1.5c-6.616.234-7.283-1.1-2-4-.921-1.756-2.088-1.923-3.5-.5a6.201 6.201 0 0 1-3.5-2l7-4.5-3.5-.5a413.618 413.618 0 0 0-21.5 7.5c-2.307 1.828-1.974 3.494 1 5-10.055 8.393-9.222 10.226 2.5 5.5l.5 1c-6.715 4.522-14.048 7.689-22 9.5-3.902 2.4-6.902 5.566-9 9.5-1.046 2.285-1.046 4.618 0 7h-5v-3c2.483-.23 2.983-.897 1.5-2a227.49 227.49 0 0 0-8.5 2c-3.46-1.285-3.96-3.285-1.5-6 2.13-.641 3.63-1.974 4.5-4-.774-1.211-1.607-1.211-2.5 0-1.667-2.128-3.834-3.461-6.5-4a26.756 26.756 0 0 1 3-6.5c-3.397.994-6.73.66-10-1 2.44-3.617 5.773-5.784 10-6.5 1.261-4.312 3.761-7.646 7.5-10 .492-1.049.326-2.049-.5-3l4-3c.929-1.189 1.262-2.522 1-4a4.934 4.934 0 0 1-3-.5c1.302-3.134 3.635-4.968 7-5.5a36.157 36.157 0 0 0 2.5-8c3.248-.942 3.748-2.275 1.5-4a84.792 84.792 0 0 0 8-7.5 19.885 19.885 0 0 0-4-3.5 36.168 36.168 0 0 1-7 4c-1.35-1.45-3.016-2.117-5-2-.219-1.175.114-2.175 1-3 3.571-1.239 4.238-3.073 2-5.5 2.235-1.755 4.568-2.422 7-2-1.45-1.117-3.116-1.784-5-2a12.93 12.93 0 0 1 5-.5v-3c-1.175.219-2.175-.114-3-1a22.133 22.133 0 0 1 6-3 139.052 139.052 0 0 0-13-20.5c.09-8.129-1.244-16.129-4-24 .194-3.8 1.194-7.633 3-11.5-1.161 9.337.672 18.337 5.5 27 3.944 1.443 6.777 4.109 8.5 8l-3 2a38.91 38.91 0 0 0 5 5.5 207.626 207.626 0 0 0 20.5 11.5 15.973 15.973 0 0 0 6-2c4.31 1.285 8.143.285 11.5-3 1.211-.774 1.211-1.607 0-2.5a70.677 70.677 0 0 1 9-1c-5.534 2.196-9.867 5.863-13 11-1.284.684-2.451.517-3.5-.5l-1.5 1.5c4.456.867 8.789.534 13-1a69.46 69.46 0 0 1 16-12c.009-1.73.342-3.563 1-5.5a29.825 29.825 0 0 0 5-2c-1.071-1.825-.404-2.992 2-3.5l-1-1a66.615 66.615 0 0 1 6-2.5c.923-5.795 3.757-7.128 8.5-4l1.5-1c-2.825-4.383-1.992-8.05 2.5-11l1-10a4.458 4.458 0 0 0 1.5 2c1.345-.847 2.345-2.013 3-3.5 2.879-2.038 5.546-1.87 8 .5a43.725 43.725 0 0 0 5.5-3l3 5c4.143-2.665 8.643-3.498 13.5-2.5-6.82 3.822-6.653 4.655.5 2.5l4.5 1.5a3.647 3.647 0 0 0-1 1.5c1.412 1.306 3.079 2.14 5 2.5a6.807 6.807 0 0 0-3 1.5 225.348 225.348 0 0 0 24 10 3.647 3.647 0 0 1-1 1.5 50.62 50.62 0 0 0 12 8.5 48.165 48.165 0 0 1 2.5 5c2.167.988 4 2.321 5.5 4Z"/><path style="opacity:1" fill="#200b00" d="M273.5 285.5c9.529-5.054 19.529-7.22 30-6.5a19.06 19.06 0 0 1 7 2.5c1-.333 1.667-1 2-2-4.522-9.708-9.022-19.374-13.5-29a193.88 193.88 0 0 0-15.5-17.5c-7.596-4.65-13.763-10.817-18.5-18.5a63.726 63.726 0 0 0-10-9l-1-10a209.799 209.799 0 0 1-14-41l-6-6c-5.422-10.764-12.422-20.43-21-29-2.605-3.409-3.105-7.076-1.5-11 6.767.589 11.434 4.089 14 10.5 2.602.883 4.769 2.383 6.5 4.5a1204.432 1204.432 0 0 1 14.5 29.5l-1 1a2227.97 2227.97 0 0 1 5 23.5 12.793 12.793 0 0 0 2-4.5 324.314 324.314 0 0 0-2-9.5 12.403 12.403 0 0 1 2.5-4c6.695 7.35 8.528 15.684 5.5 25a10888.41 10888.41 0 0 0 3.5 16c.602-9.076 2.769-17.743 6.5-26a82.259 82.259 0 0 0 12-3.5 24.128 24.128 0 0 1 11 .5c1.237-.056 2.237-.556 3-1.5-2.619-.151-4.953-.985-7-2.5l3-2.5a29.232 29.232 0 0 1-8-.5 7.248 7.248 0 0 1 2-2.5 55.182 55.182 0 0 1-9 0c.78-1.073.613-2.24-.5-3.5a64.735 64.735 0 0 1-6 9c-.423-1.456-1.256-1.956-2.5-1.5.78 1.073.613 2.24-.5 3.5-.853 1.625-1.853 1.958-3 1a93.24 93.24 0 0 1-3.5-15.5l2-4c1.626.195 3.293.195 5 0-1.226-2.601-.56-3.435 2-2.5.924-1.89 2.257-3.39 4-4.5a57.884 57.884 0 0 1-11-4c-1.333-1-1.333-2 0-3a76.716 76.716 0 0 1-6-3.5c-1.231-1.151-1.231-2.317 0-3.5-4.951-2.618-8.951-6.284-12-11a11.333 11.333 0 0 0 3.5-1.5 71.72 71.72 0 0 0 12.5 6c-1.5-1.679-3.333-3.012-5.5-4a48.165 48.165 0 0 0-2.5-5 50.62 50.62 0 0 1-12-8.5 3.647 3.647 0 0 0 1-1.5 225.348 225.348 0 0 1-24-10 6.807 6.807 0 0 1 3-1.5c-1.921-.36-3.588-1.194-5-2.5a3.647 3.647 0 0 1 1-1.5l-4.5-1.5c-7.153 2.155-7.32 1.322-.5-2.5-4.857-.998-9.357-.165-13.5 2.5l-3-5a43.725 43.725 0 0 1-5.5 3c-2.454-2.37-5.121-2.538-8-.5-.655 1.487-1.655 2.653-3 3.5a4.458 4.458 0 0 1-1.5-2l-1 10c-4.492 2.95-5.325 6.617-2.5 11l-1.5 1c-4.743-3.128-7.577-1.795-8.5 4a66.615 66.615 0 0 0-6 2.5l1 1c-2.404.508-3.071 1.675-2 3.5a29.825 29.825 0 0 1-5 2c-.658 1.937-.991 3.77-1 5.5a69.46 69.46 0 0 0-16 12c-4.211 1.534-8.544 1.867-13 1l1.5-1.5c1.049 1.017 2.216 1.184 3.5.5 3.133-5.137 7.466-8.804 13-11a70.677 70.677 0 0 0-9 1c1.211.893 1.211 1.726 0 2.5-3.357 3.285-7.19 4.285-11.5 3a15.973 15.973 0 0 1-6 2A207.626 207.626 0 0 1 91.5 125a38.91 38.91 0 0 1-5-5.5l3-2c-1.723-3.891-4.556-6.557-8.5-8-4.828-8.663-6.661-17.663-5.5-27-1.806 3.867-2.806 7.7-3 11.5 2.756 7.871 4.09 15.871 4 24a139.052 139.052 0 0 1 13 20.5 22.133 22.133 0 0 0-6 3c.825.886 1.825 1.219 3 1v3a12.93 12.93 0 0 0-5 .5c1.884.216 3.55.883 5 2-2.432-.422-4.765.245-7 2 2.238 2.427 1.571 4.261-2 5.5-.886.825-1.219 1.825-1 3 1.984-.117 3.65.55 5 2a36.168 36.168 0 0 0 7-4 19.885 19.885 0 0 1 4 3.5 84.792 84.792 0 0 1-8 7.5c2.248 1.725 1.748 3.058-1.5 4a36.157 36.157 0 0 1-2.5 8c-3.365.532-5.698 2.366-7 5.5a4.934 4.934 0 0 0 3 .5c.262 1.478-.071 2.811-1 4l-4 3c.826.951.992 1.951.5 3-3.739 2.354-6.239 5.688-7.5 10-4.227.716-7.56 2.883-10 6.5 3.27 1.66 6.603 1.994 10 1a26.756 26.756 0 0 0-3 6.5c2.666.539 4.833 1.872 6.5 4 .893-1.211 1.726-1.211 2.5 0-.87 2.026-2.37 3.359-4.5 4-2.46 2.715-1.96 4.715 1.5 6a227.49 227.49 0 0 1 8.5-2c1.483 1.103.983 1.77-1.5 2a64.93 64.93 0 0 1-9 .5c-2.287-2.243-2.453-4.743-.5-7.5a11.339 11.339 0 0 1 3.5-1.5 8.902 8.902 0 0 1-4-3 8.43 8.43 0 0 0-4-.5 51.648 51.648 0 0 1 1-7 41.541 41.541 0 0 1-8-1c1.393-5.056 4.726-8.056 10-9 2.686-4.712 5.353-9.378 8-14l4-3c-.825-.886-1.825-1.219-3-1 .479-4.292 2.812-6.959 7-8 1.418-7.53 5.085-13.697 11-18.5a4.458 4.458 0 0 0-2-1.5c-2.734 1.871-5.734 2.871-9 3 .126 1.7.793 3.2 2 4.5-3.014 4.256-7.014 5.423-12 3.5-.333-3 1-4.333 4-4v-5c1.7.16 3.366-.006 5-.5a4.934 4.934 0 0 0-3-.5c-.394-3.357.94-5.69 4-7a11.47 11.47 0 0 1-1-2.5c1.356-1.567 2.023-3.4 2-5.5 1.7.16 3.366-.006 5-.5a4.934 4.934 0 0 0-3-.5c-.15-3.443 1.517-5.443 5-6a98.323 98.323 0 0 0-11.5-17c-.743-1.941-.576-3.774.5-5.5a1706.712 1706.712 0 0 0-5-22.5c.671-3.676 1.338-7.343 2-11h4c-2.172 9.594-.672 18.594 4.5 27 4.372 1.539 7.205 4.539 8.5 9-.318 1.147-.984 1.981-2 2.5a137.75 137.75 0 0 0 23.5 15.5l6-2c3.059 1.213 5.892.713 8.5-1.5 1.323-.816 1.989-1.983 2-3.5v-1h2c1.915.284 3.581-.049 5-1h4c.17 1.322-.163 2.489-1 3.5-4.855 1.52-8.522 4.52-11 9 3.022.164 5.689-.836 8-3 3.73-4.179 8.064-7.345 13-9.5-.815-4.333.852-6.666 5-7 .61-4.61 3.276-7.277 8-8 .919-5.44 3.919-7.273 9-5.5-1.607-4.312-.441-7.812 3.5-10.5.498-3.317.665-6.65.5-10 1.322-.17 2.489.163 3.5 1 2.794-3.765 6.461-4.765 11-3l5-2c1.765.732 2.932 2.065 3.5 4-.022-1.495.311-3.162 1-5a9.107 9.107 0 0 1 5-1c.17 1.322-.163 2.489-1 3.5 2.982.498 5.982.665 9 .5.246 2.97 1.912 4.303 5 4-.333 3 1 4.333 4 4-.219 1.175.114 2.175 1 3a177.766 177.766 0 0 1 14 7.5c1.973.495 3.973.662 6 .5a8.43 8.43 0 0 0 .5 4 58.808 58.808 0 0 0 10.5 7 60.667 60.667 0 0 0 3 5.5 121.956 121.956 0 0 1 21 16 4.934 4.934 0 0 0 3 .5v4a47.943 47.943 0 0 1-17-6.5 27.477 27.477 0 0 1-5-8.5c-14.164-6.589-14.664-5.256-1.5 4 .684 1.284.517 2.451-.5 3.5a15.39 15.39 0 0 0 6 3c1.824 4.931 5.491 7.431 11 7.5l1 1.5c-1.612 1.482-2.612 3.315-3 5.5h-3v3h-6c-.348 5.862.485 11.528 2.5 17 1.269-1.405 1.769-3.071 1.5-5 1.788.285 3.455-.048 5-1 .8-2.633 2.3-4.633 4.5-6 1.169.509 2.002 1.342 2.5 2.5 2.646.497 5.313.664 8 .5v3h6a6.846 6.846 0 0 1-1 4c1.545.952 3.212 1.285 5 1 .363 2.411-.637 3.911-3 4.5 4.138-.218 5.472 1.448 4 5a4.934 4.934 0 0 0 3 .5c.419 2.825-.581 4.991-3 6.5 2.535.928 3.535 2.762 3 5.5-2.561-.053-4.561.947-6 3 2.844 3.941 2.511 7.607-1 11a6.846 6.846 0 0 1 1 4c-4.067-.129-5.067 1.038-3 3.5-.601 2.637-2.267 3.804-5 3.5v3c-1.981.848-3.981 1.348-6 1.5-2.001-2.484-4.501-4.317-7.5-5.5a4.934 4.934 0 0 1-.5-3c7.11-1.601 11.944-5.935 14.5-13a37.222 37.222 0 0 0-.5-14 98.305 98.305 0 0 0 1.5-9l2.5-2.5c-2.455-1.54-5.121-1.874-8-1a146.69 146.69 0 0 0-13 4.5c-3.211 8.065-4.877 16.398-5 25-1.624.14-2.79-.527-3.5-2a93.113 93.113 0 0 0-2.5-15c.252-3.09.919-6.09 2-9a133.97 133.97 0 0 0-6.5-14 177.807 177.807 0 0 1-.5 17 8.43 8.43 0 0 0-4 .5c4.08 8.005 6.58 16.505 7.5 25.5a63.726 63.726 0 0 1 10 9c4.737 7.683 10.904 13.85 18.5 18.5a193.88 193.88 0 0 1 15.5 17.5c5.488 10.294 9.821 20.96 13 32a4.933 4.933 0 0 1-2.5 1 44.81 44.81 0 0 0-11-3 122.69 122.69 0 0 0-26 6Z"/><path style="opacity:1" fill="#fc5b00" d="M200.5 80.5a2.427 2.427 0 0 1 2 .5 20.477 20.477 0 0 1-3.5 2.5c-.239-1.288.261-2.288 1.5-3Z"/><path style="opacity:1" d="M212.5 109.5c5.511 1.341 9.345 4.675 11.5 10 4.667 2 8 5.333 10 10a303.77 303.77 0 0 0 10 21 79.917 79.917 0 0 1 3 24 75.815 75.815 0 0 1-6-21l-6-6c-5.422-10.764-12.422-20.43-21-29-2.407-2.768-2.907-5.768-1.5-9Z"/><path style="opacity:1" fill="#200b00" d="M117.5 153.5c-.086-.996.248-1.829 1-2.5a25.777 25.777 0 0 0 8-2 98.984 98.984 0 0 0-9-2.5 67.917 67.917 0 0 1 14-2.5c5.157-1.737 8.824-5.07 11-10 4.989-1.192 9.655-3.025 14-5.5.711-3.882 3.044-6.382 7-7.5a20.2 20.2 0 0 1-6-1.5 28.717 28.717 0 0 1 13-.5l2 2a29.144 29.144 0 0 1-5 2.5l7 2a28.718 28.718 0 0 1-1 5 9.258 9.258 0 0 0-2.5-2 230.579 230.579 0 0 0-11.5 2 29.825 29.825 0 0 1-2 5c-4.59 2.262-8.59 5.262-12 9a29.825 29.825 0 0 0-5 2c1.649.648 2.982 1.648 4 3-1.613 1.588-3.613 2.588-6 3-1.175-1.355-2.175-1.188-3 .5.837 1.011 1.17 2.178 1 3.5a60.869 60.869 0 0 0-10 3.5 23.577 23.577 0 0 1-1 3.5 6.846 6.846 0 0 1-4 1c.273 1.951-.393 3.451-2 4.5.457.414.791.914 1 1.5a54.77 54.77 0 0 0-10.5 6 15.855 15.855 0 0 1-5.5 6c1.161 1.724.995 3.39-.5 5A180.476 180.476 0 0 1 88.5 204c.116 1.268.45 2.602 1 4-4.099 3.519-8.766 4.686-14 3.5a54.61 54.61 0 0 1 9-12.5 7.292 7.292 0 0 0-3-2c1.436-2.643 3.603-4.477 6.5-5.5.306-2.406 1.139-4.573 2.5-6.5a9.564 9.564 0 0 0-3-3l4-3-2-2c4.206-4.737 9.206-8.404 15-11 .88-1.356 1.214-2.856 1-4.5 1.788.285 3.455-.048 5-1-2.528-1.316-2.528-2.483 0-3.5a18.453 18.453 0 0 1 6-.5c-.237-1.291.096-2.291 1-3Z"/><path style="opacity:1" d="M117.5 153.5c2.747-1.525 5.747-2.525 9-3l1-1.5a9.568 9.568 0 0 0-3-3c8.659.176 14.992-3.491 19-11 4.989-1.192 9.655-3.025 14-5.5.505-3.512 2.505-5.845 6-7 .886-.825 1.219-1.825 1-3 2.25-.319 4.25.181 6 1.5a8.43 8.43 0 0 1-4 .5v4a9.86 9.86 0 0 1 6 1 84.234 84.234 0 0 1-14 3 29.825 29.825 0 0 1-2 5c-4.59 2.262-8.59 5.262-12 9a9.108 9.108 0 0 1-5 1v4c1.175-.219 2.175.114 3 1a26.724 26.724 0 0 1-7 1.5c-1.333 1.333-1.333 2.667 0 4l-10 4c-.293 3.094-1.959 4.594-5 4.5-.254 2.514-1.087 4.848-2.5 7-7.742 2.857-12.742 8.19-15 16a322.597 322.597 0 0 1-14.5 16 20.211 20.211 0 0 0-1.5 6c-2.987 1.728-6.154 2.561-9.5 2.5a116.692 116.692 0 0 1 8-12c-.26-1.261-.926-2.261-2-3a46.996 46.996 0 0 1 5.5-3.5c.458-2.681 1.291-5.181 2.5-7.5-.255-1.326-.922-2.326-2-3 2.846-.879 3.513-2.546 2-5 3.89-4.373 8.558-7.706 14-10 .88-1.356 1.214-2.856 1-4.5h5v-5h6v-4Z"/><path style="opacity:1" fill="#1f0b00" d="M202.5 119.5c3.005-.247 5.505.753 7.5 3a139.96 139.96 0 0 1 10 20c1.101 1.894 2.434 2.561 4 2 1.316 4.798 3.483 9.131 6.5 13-1.078 7.951-1.078 15.451 0 22.5-1.167 3.167-2.667 3.333-4.5.5a22.508 22.508 0 0 1-2-7c-.442 2.179-1.442 2.845-3 2a311.706 311.706 0 0 0-5-24l-14-28c-.579-1.428-.412-2.762.5-4Z"/><path style="opacity:1" d="M203.5 120.5c2.179.34 4.012 1.34 5.5 3a139.96 139.96 0 0 1 10 20 14.748 14.748 0 0 0 4.5 3 93.487 93.487 0 0 0 6 14.5l-1.5 19.5c-2.023-2.269-2.856-4.936-2.5-8-1.624-.14-2.79.527-3.5 2a311.706 311.706 0 0 0-5-24 1138.472 1138.472 0 0 0-14.5-28.5c.556-.383.889-.883 1-1.5Z"/><path style="opacity:1" fill="#fc5b00" d="M259.5 123.5c7.08 4.235 13.247 9.235 18.5 15-6.269-1.966-11.935-4.966-17-9l-1.5-6Z"/><path style="opacity:1" fill="#1f0a00" d="M172.5 146.5c.06-.543.393-.876 1-1 1.72 1.434 3.72 2.267 6 2.5 1.803.637 3.136 1.803 4 3.5a9.258 9.258 0 0 1 2.5-2 41.207 41.207 0 0 0 9.5 3.5 93.983 93.983 0 0 1 8.5 13.5c2.788 9.904.955 11.07-5.5 3.5a82.356 82.356 0 0 1-16-6c-8.969-1.455-17.969-1.455-27 0-2 2.667-4.333 5-7 7a24.909 24.909 0 0 0-8.5 2.5c-.311 1.242.189 2.242 1.5 3a71.477 71.477 0 0 1-8.5 9 4.934 4.934 0 0 0-.5 3 32.462 32.462 0 0 1-8-.5c6.32-6.48 5.32-8.48-3-6l-3 1.5c-2.506 7.836-7.84 12.503-16 14-.009-1.808.491-3.475 1.5-5a33.816 33.816 0 0 0 6-5c.233-2.28 1.066-4.28 2.5-6a121.345 121.345 0 0 0 13-7c.596-1.216.763-2.549.5-4a20.431 20.431 0 0 1 5.5-1.5c-1.333-1-1.333-2 0-3 2.4-.186 4.734-.686 7-1.5l-4-2a106.431 106.431 0 0 0 17-4.5l-1-1 8-1c-1.052-1.716-.386-2.716 2-3l-3-2.5 2.5-1a33.327 33.327 0 0 0 11.5 4c.286-1.777.953-3.444 2-5-.043-.916-.376-1.583-1-2Z"/><path style="opacity:1" d="M174.5 148.5c3.637-.013 6.637 1.32 9 4 1.147-.318 1.981-.984 2.5-2 2.557 1.689 5.391 2.856 8.5 3.5a93.983 93.983 0 0 1 8.5 13.5c2.456 7.493 1.289 7.993-3.5 1.5a82.356 82.356 0 0 1-16-6 88.806 88.806 0 0 0-29 0c-2 2.667-4.333 5-7 7a24.909 24.909 0 0 0-8.5 2.5c-.668 5.038-3.001 9.038-7 12a4.934 4.934 0 0 0-.5 3 8.43 8.43 0 0 1-4-.5c1.367-2.301 2.034-4.801 2-7.5a32.735 32.735 0 0 0-12 3 98.598 98.598 0 0 1-7 10.5c-1.977 1.541-3.977 2.041-6 1.5a76.236 76.236 0 0 1 6.5-6c.233-2.28 1.066-4.28 2.5-6a121.345 121.345 0 0 0 13-7c.952-1.545 1.285-3.212 1-5h5v-4h7v-4a219.051 219.051 0 0 1 20-5 23.776 23.776 0 0 1 2.5-6c3.078 2.431 6.578 3.431 10.5 3l2-6Z"/><path style="opacity:1" fill="#fc5b00" d="M74.5 161.5c1.478-.262 2.811.071 4 1l-2 1c-1.213-.247-1.88-.914-2-2Z"/><path style="opacity:1" fill="#1f0b00" d="m261.5 274.5-7.5-15a21.53 21.53 0 0 0-6-5 108.37 108.37 0 0 0-5-13 148.791 148.791 0 0 0-13-16 4.934 4.934 0 0 1-.5-3h-3c-.282-3.105-1.282-5.938-3-8.5a219.258 219.258 0 0 1 2-11 182.095 182.095 0 0 1-8-20 7.297 7.297 0 0 1 2-3.5c-2.124-5.634-5.624-10.301-10.5-14 .162 4.955.495 9.955 1 15 4.144 4.372 5.311 9.205 3.5 14.5a43.892 43.892 0 0 1 2 9 33.326 33.326 0 0 0-2 8.5c-1.322.17-2.489-.163-3.5-1a94.243 94.243 0 0 1-8-23 56.289 56.289 0 0 0-14.5-10.5 72.464 72.464 0 0 0-17 0 329.572 329.572 0 0 1-28 8c8.213 3.936 14.047 10.103 17.5 18.5 8.869 11.145 19.702 13.311 32.5 6.5a16.242 16.242 0 0 1 8 0 34.534 34.534 0 0 0 6 5.5c.929 1.189 1.262 2.522 1 4a17.65 17.65 0 0 0-6-.5c2.481 1.804 2.481 3.304 0 4.5.111-.617.444-1.117 1-1.5-1.829-1.113-2.663-2.613-2.5-4.5 2.314-.236 4.48-.236 6.5 0a65.066 65.066 0 0 1-7-6.5c-2-.667-4-.667-6 0a139.966 139.966 0 0 1-12.5 4.5c-3.394-1.16-6.727-1.16-10 0a324.178 324.178 0 0 1-12-11c-3.618-8.785-9.785-15.119-18.5-19a7.248 7.248 0 0 1 2-2.5 130.971 130.971 0 0 0 27-7 90.455 90.455 0 0 1 19 0 56.289 56.289 0 0 1 14.5 10.5 263.524 263.524 0 0 1 5 17 36.16 36.16 0 0 0 4 7c.496-1.535.33-3.035-.5-4.5.51-1.826 1.344-1.993 2.5-.5.241-3.89-.259-7.723-1.5-11.5.255-1.326.922-2.326 2-3a27.58 27.58 0 0 0-5.5-10.5 228.126 228.126 0 0 0-1.5-15l1-3c6.248 4.242 10.581 9.909 13 17-.825.886-1.825 1.219-3 1a131.97 131.97 0 0 0 7.5 19c-.135 3.254.031 6.42.5 9.5-2.811 2.738-2.644 5.238.5 7.5a8.43 8.43 0 0 1 .5 4h3a4.934 4.934 0 0 0 .5 3 148.791 148.791 0 0 1 13 16 108.37 108.37 0 0 1 5 13 21.53 21.53 0 0 1 6 5 332.736 332.736 0 0 1 7.5 15.5c-.228.399-.562.565-1 .5Z"/><path style="opacity:1" fill="#fc5b00" d="M74.5 165.5c7.553-.131 7.553 1.202 0 4a28.907 28.907 0 0 0-4-1.5 51.239 51.239 0 0 1 4-2.5Z"/><path style="opacity:1" d="M261.5 274.5v4c-.667 0-1 .333-1 1a9.175 9.175 0 0 1-4.5-2 226.366 226.366 0 0 1-9.5-16c-4.71-2.01-8.044-5.343-10-10-3.335-1.048-4.835-3.382-4.5-7h-3c-1.844-5.327-4.677-9.994-8.5-14-1.22 1.211-2.387 1.211-3.5 0v-8a29.964 29.964 0 0 1-6 7 32.065 32.065 0 0 1-2.5-4 33.902 33.902 0 0 0-6 3.5c-1.566.765-2.899.598-4-.5l3-4c2.481-1.196 2.481-2.696 0-4.5a17.65 17.65 0 0 1 6 .5c.262-1.478-.071-2.811-1-4a34.534 34.534 0 0 1-6-5.5 16.242 16.242 0 0 0-8 0c-12.798 6.811-23.631 4.645-32.5-6.5-3.453-8.397-9.287-14.564-17.5-18.5a329.572 329.572 0 0 0 28-8 72.464 72.464 0 0 1 17 0 56.289 56.289 0 0 1 14.5 10.5 94.243 94.243 0 0 0 8 23c1.011.837 2.178 1.17 3.5 1 .288-2.897.955-5.73 2-8.5a43.892 43.892 0 0 0-2-9c1.811-5.295.644-10.128-3.5-14.5a224.093 224.093 0 0 1-1-15c4.876 3.699 8.376 8.366 10.5 14a7.297 7.297 0 0 0-2 3.5 182.095 182.095 0 0 0 8 20 219.258 219.258 0 0 0-2 11c1.718 2.562 2.718 5.395 3 8.5h3a4.934 4.934 0 0 0 .5 3 148.791 148.791 0 0 1 13 16 108.37 108.37 0 0 1 5 13 21.53 21.53 0 0 1 6 5l7.5 15Z"/><path style="opacity:1" fill="#fc5b00" d="M290.5 173.5c2.13.532 4.13 1.365 6 2.5-.837 1.011-1.17 2.178-1 3.5 1.175-.219 2.175.114 3 1a19.953 19.953 0 0 0-3 4.5 604.676 604.676 0 0 1 3 3.5c-6.194 1.46-7.527 4.793-4 10a17.774 17.774 0 0 1-4 6 7.248 7.248 0 0 0 2 2.5c-2.497.412-4.497 1.578-6 3.5a6.802 6.802 0 0 0 3 1.5c-1.117 1.892-2.784 2.725-5 2.5v3c-1.624-.14-2.79.527-3.5 2a23.574 23.574 0 0 0-8.5-6.5c8.571-2.743 13.905-8.576 16-17.5-3.065-7.788-2.398-15.122 2-22Z"/><path style="opacity:1" fill="#5e462b" d="M279.5 178.5h3c1.707 6.853 1.207 13.52-1.5 20-.562-2.366-.396-4.699.5-7a55.171 55.171 0 0 1-2-13Z"/><path style="opacity:1" fill="#fefffe" d="M273.5 186.5c-2.473.412-3.806-.588-4-3 .465-2.973 2.132-4.14 5-3.5 1.356 2.414 1.022 4.581-1 6.5Z"/><path style="opacity:1" fill="#5e462b" d="M269.5 183.5c.194 2.412 1.527 3.412 4 3-1.482 4.264-2.315 8.598-2.5 13 2.808 1.42 5.642 1.92 8.5 1.5-5.433 6.634-9.267 5.801-11.5-2.5-.808-5.259-.308-10.259 1.5-15ZM170.5 186.5c-1.523 2.086-1.19 3.752 1 5 .783 5.809 2.783 11.142 6 16 5.42 1.542 9.586-.124 12.5-5a86.628 86.628 0 0 0-1.5-16c2.222-.322 4.056.345 5.5 2a602.298 602.298 0 0 0 4 8c.814 2.402.647 4.735-.5 7-2 1.333-3.667 3-5 5-5.298.905-10.298 2.571-15 5-4.251-2.744-8.085-6.078-11.5-10-2.965-5.492-4.131-11.159-3.5-17h8Z"/><path style="opacity:1" fill="#fefffe" d="M170.5 186.5a18.453 18.453 0 0 1 6 .5c1.333 1.333 1.333 2.667 0 4a12.93 12.93 0 0 1-5 .5c-2.19-1.248-2.523-2.914-1-5Z"/><path style="opacity:1" fill="#200b00" d="M193.5 227.5a36.633 36.633 0 0 0-6.5 4c-.929 5.216-4.095 7.549-9.5 7a8.43 8.43 0 0 0-.5-4 6.978 6.978 0 0 1-2.5 3.5 203.918 203.918 0 0 0-9 3.5c-.253-2.327.414-4.327 2-6-.733-.587-1.733-.587-3 0h-5c.166-4.189-1.501-7.522-5-10-1.746 2.354-4.079 3.354-7 3 .042-2.899.542-5.565 1.5-8-1.738-2.122-3.572-1.955-5.5.5-5.428.589-7.761-1.911-7-7.5h-6a28.789 28.789 0 0 0 2-10h-6c-.17-1.322.163-2.489 1-3.5-3.962-1.211-4.629-3.211-2-6l-1.5-.5a403.67 403.67 0 0 0-17.5 7.5c1.074.739 1.741 1.739 2 3a21.365 21.365 0 0 1-5 6 85.93 85.93 0 0 0 8-1.5c.262 1.478-.071 2.811-1 4-1.761.535-3.094 1.535-4 3-1.602 1.574-3.602 2.241-6 2-8.448 1.444-15.448 5.444-21 12 2.098-3.934 5.098-7.1 9-9.5 7.952-1.811 15.285-4.978 22-9.5l-.5-1c-11.722 4.726-12.555 2.893-2.5-5.5-2.974-1.506-3.307-3.172-1-5a413.618 413.618 0 0 1 21.5-7.5l3.5.5-7 4.5a6.201 6.201 0 0 0 3.5 2c1.412-1.423 2.579-1.256 3.5.5-5.283 2.9-4.616 4.234 2 4 .457.414.791.914 1 1.5-1.333 1-1.333 2 0 3a32.367 32.367 0 0 0-3 4.5l7 1a35.193 35.193 0 0 0-1 4.5l4 3c4.152-4.443 7.485-3.943 10 1.5-2.555 1.258-3.222 3.091-2 5.5a19.887 19.887 0 0 0 4-3.5c.667-.667 1.333-.667 2 0a18.68 18.68 0 0 0 6 6.5c-.928 1.268-1.095 2.601-.5 4 1.791-2.013 3.125-2.013 4 0 1.402-2.473 2.902-2.473 4.5 0a18.924 18.924 0 0 1-3 5l1 1a23.65 23.65 0 0 1 3-3.5c.949-.617 1.782-.451 2.5.5a23.162 23.162 0 0 0 4.5-6.5 4.934 4.934 0 0 1 3-.5 187.383 187.383 0 0 0-1.5 7l3-3 1 2a31.041 31.041 0 0 0 4-8l1 1c1.41-2.636 3.243-3.303 5.5-2Z"/><path style="opacity:1" d="M162.5 235.5c-3.802 5.414-9.135 8.581-16 9.5a19.887 19.887 0 0 1-4 3.5c-1.976-4.84-1.31-9.507 2-14l-5-3.5a14.698 14.698 0 0 0 3-3.5c-3.399 1.888-6.399 4.388-9 7.5a28.931 28.931 0 0 0-4 1.5c-.539-2.702-1.872-4.869-4-6.5 1.57-1.702 1.237-2.535-1-2.5-1.147.318-1.981.984-2.5 2-1.487-1.772-1.82-3.772-1-6a17.712 17.712 0 0 0 4.5-5.5c-1.455-2.248-2.288-4.748-2.5-7.5a109.086 109.086 0 0 1-16.5 5c.906-1.465 2.239-2.465 4-3 .929-1.189 1.262-2.522 1-4a85.93 85.93 0 0 1-8 1.5 21.365 21.365 0 0 0 5-6c-.259-1.261-.926-2.261-2-3a403.67 403.67 0 0 1 17.5-7.5l1.5.5c-2.629 2.789-1.962 4.789 2 6-.837 1.011-1.17 2.178-1 3.5h6a28.789 28.789 0 0 1-2 10h6c-.761 5.589 1.572 8.089 7 7.5 1.928-2.455 3.762-2.622 5.5-.5-.958 2.435-1.458 5.101-1.5 8 2.921.354 5.254-.646 7-3 3.499 2.478 5.166 5.811 5 10h3Z"/><path style="opacity:1" fill="#fefefe" d="M142.5 227.5a14.698 14.698 0 0 1-3 3.5l5 3.5c-3.31 4.493-3.976 9.16-2 14a19.887 19.887 0 0 0 4-3.5c6.865-.919 12.198-4.086 16-9.5h2a54.95 54.95 0 0 1-11 10.5c1.178.967 2.511 1.467 4 1.5-1.09 1.109-1.09 2.109 0 3 1.578-1.14 3.244-1.64 5-1.5-1.711 1.133-2.211 2.633-1.5 4.5a36.104 36.104 0 0 1 8.5-5l1 2c2.97-1.137 5.136-3.137 6.5-6-.083 2.619-.25 5.286-.5 8 3.437-.634 6.604-1.967 9.5-4a91.434 91.434 0 0 0 9.5-20h3c1.101 1.098 2.434 1.265 4 .5a33.902 33.902 0 0 1 6-3.5 32.065 32.065 0 0 0 2.5 4 29.964 29.964 0 0 0 6-7v8c1.113 1.211 2.28 1.211 3.5 0 3.823 4.006 6.656 8.673 8.5 14h3c-.335 3.618 1.165 5.952 4.5 7 1.956 4.657 5.29 7.99 10 10a226.366 226.366 0 0 0 9.5 16 9.175 9.175 0 0 0 4.5 2 216.717 216.717 0 0 0 8 9.5 4.934 4.934 0 0 0 3 .5c-5.649 7.971-4.982 15.471 2 22.5l13 9c7.39.273 14.723-.227 22-1.5l1 1a223.852 223.852 0 0 1-14 10.5c-4.691.65-9.357.483-14-.5a30.768 30.768 0 0 0-6.5 2c-4.48-1.062-8.98-1.062-13.5 0a103.498 103.498 0 0 1-17-3.5 152.737 152.737 0 0 1-21-20 473.983 473.983 0 0 1-28-23 86.601 86.601 0 0 0-15.5-4.5c-3.031.431-5.531 1.764-7.5 4a7.248 7.248 0 0 0 2 2.5c10.729 3.528 20.395 8.862 29 16a181.853 181.853 0 0 0 34 30 73.747 73.747 0 0 1-23-2c-2.667-1.333-4.667-3.333-6-6a403.288 403.288 0 0 1-56-38 48.247 48.247 0 0 0-4.5-6.5c-4.698 3.106-5.532 2.273-2.5-2.5l-.5-1.5c-.893 1.211-1.726 1.211-2.5 0 1.623-1.613 2.79-3.28 3.5-5-2.645 1.915-5.479 3.082-8.5 3.5l3-3h-12a64.292 64.292 0 0 1 7-6.5c-1.913-.551-3.913-.718-6-.5 1.024-1.367.524-2.2-1.5-2.5a66.24 66.24 0 0 0-17 5c-.089-1.613.745-2.78 2.5-3.5-3.368-.051-6.702.449-10 1.5-3.461-1.285-3.96-3.285-1.5-6 1.972-.805 3.472-2.139 4.5-4-.774-1.211-1.607-1.211-2.5 0-1.667-2.128-3.834-3.461-6.5-4a26.756 26.756 0 0 1 3-6.5c-3.397.994-6.73.66-10-1 2.555-3.572 5.888-5.905 10-7-1.216-1.74-2.882-2.74-5-3a52.806 52.806 0 0 1 13-11h-6c12.453-7.195 11.953-8.695-1.5-4.5a2.428 2.428 0 0 1-.5-2c2.398.241 4.398-.426 6-2a109.086 109.086 0 0 0 16.5-5c.212 2.752 1.045 5.252 2.5 7.5a17.712 17.712 0 0 1-4.5 5.5c-.82 2.228-.487 4.228 1 6 .519-1.016 1.353-1.682 2.5-2 2.237-.035 2.57.798 1 2.5 2.128 1.631 3.461 3.798 4 6.5a28.931 28.931 0 0 1 4-1.5c2.601-3.112 5.601-5.612 9-7.5Z"/><path style="opacity:1" fill="#fefffe" d="M142.5 227.5c.814-1.773 2.148-2.273 4-1.5a10.134 10.134 0 0 1-4 1.5Z"/><path style="opacity:1" fill="#010101" d="m193.5 227.5 2 1a91.434 91.434 0 0 1-9.5 20c-2.896 2.033-6.063 3.366-9.5 4 .25-2.714.417-5.381.5-8-1.364 2.863-3.53 4.863-6.5 6l-1-2a36.104 36.104 0 0 0-8.5 5c-.711-1.867-.211-3.367 1.5-4.5-1.756-.14-3.422.36-5 1.5-1.09-.891-1.09-1.891 0-3-1.489-.033-2.822-.533-4-1.5a54.95 54.95 0 0 0 11-10.5c1.267-.587 2.267-.587 3 0-1.586 1.673-2.253 3.673-2 6a203.918 203.918 0 0 1 9-3.5 6.978 6.978 0 0 0 2.5-3.5 8.43 8.43 0 0 1 .5 4c5.405.549 8.571-1.784 9.5-7a36.633 36.633 0 0 1 6.5-4Z"/><path style="opacity:1" fill="#fdc09c" d="M260.5 279.5c0-.667.333-1 1-1a216.717 216.717 0 0 0 8 9.5 2.428 2.428 0 0 0 2 .5v1a4.934 4.934 0 0 1-3-.5 216.717 216.717 0 0 1-8-9.5Z"/><path style="opacity:1" fill="#fefffe" d="M292.5 295.5c3.984.219 7.818.219 11.5 0l1.5 1.5a49.226 49.226 0 0 1-14 0c.556-.383.889-.883 1-1.5ZM312.5 301.5a8.43 8.43 0 0 1 4 .5c-2.37 1.902-5.036 2.569-8 2 1.566-.608 2.9-1.442 4-2.5ZM280.5 306.5c4.437-1.772 8.437-.939 12 2.5a238.16 238.16 0 0 1-12-2.5Z"/><path style="opacity:1" fill="#1f0000" d="M278.5 335.5c3.94.258 7.607 1.424 11 3.5 3.652.499 7.318.665 11 .5-.82 8.324-4.153 15.491-10 21.5-14.878 4.394-25.212-.606-31-15 4.494-6.827 10.494-8.327 18-4.5 1.617 3.284 3.95 5.951 7 8 .418-4.501-1.415-8.167-5.5-11a4.934 4.934 0 0 1-.5-3Z"/><path style="opacity:1" fill="#fe0000" d="M279.5 337.5c.06-.543.393-.876 1-1 6.022 3.591 12.356 5.091 19 4.5-1.702 8.074-5.702 14.741-12 20-8.539 2.2-15.705.033-21.5-6.5-1.211-3.259-3.044-6.092-5.5-8.5 3.064-3.683 6.731-5.516 11-5.5a29.825 29.825 0 0 1 5 2c1.925 4.607 5.258 7.273 10 8 .042-5.581-2.291-9.914-7-13Z"/></svg>